{
	"asset":{
		"generator":"Khronos glTF Blender I/O v4.5.48",
		"version":"2.0"
	},
	"scene":0,
	"scenes":[
		{
			"name":"Scene",
			"nodes":[
				6
			]
		}
	],
	"nodes":[
		{
			"mesh":0,
			"name":"Cylinder.006",
			"translation":[
				-1.016048550605774,
				-0.13053511083126068,
				0
			]
		},
		{
			"mesh":1,
			"name":"Cylinder.007",
			"rotation":[
				-0.33024221658706665,
				-0.24387319386005402,
				0.33885738253593445,
				0.84654700756073
			],
			"scale":[
				3.123013973236084,
				0.9023299217224121,
				1.9793277978897095
			],
			"translation":[
				1.5248736143112183,
				-4.474294662475586,
				0
			]
		},
		{
			"mesh":2,
			"name":"Cylinder.008",
			"rotation":[
				-0.39936062693595886,
				0.058624543249607086,
				-0.308454692363739,
				0.8613535761833191
			],
			"scale":[
				2.2468366622924805,
				0.6150675415992737,
				6.000239849090576
			],
			"translation":[
				-1.4828957319259644,
				-9.556507110595703,
				0
			]
		},
		{
			"mesh":3,
			"name":"Cylinder.010",
			"rotation":[
				-0.33024221658706665,
				-0.24387319386005402,
				0.33885738253593445,
				0.84654700756073
			],
			"scale":[
				3.123013973236084,
				0.9023299217224121,
				1.9793277978897095
			],
			"translation":[
				1.5248736143112183,
				-4.474294662475586,
				0
			]
		},
		{
			"mesh":4,
			"name":"Cylinder.012",
			"translation":[
				-1.016048550605774,
				-0.13053511083126068,
				0
			]
		},
		{
			"mesh":5,
			"name":"Cylinder.013",
			"rotation":[
				-0.39936062693595886,
				0.058624543249607086,
				-0.308454692363739,
				0.8613535761833191
			],
			"scale":[
				2.2468366622924805,
				0.6150675415992737,
				6.000239849090576
			],
			"translation":[
				-1.4828957319259644,
				-9.556507110595703,
				0
			]
		},
		{
			"children":[
				0,
				1,
				2,
				3,
				4,
				5
			],
			"mesh":6,
			"name":"Cylinder.003",
			"rotation":[
				0,
				0,
				-0.7071068286895752,
				0.7071068286895752
			],
			"scale":[
				4.172724723815918,
				0.5264904499053955,
				4.172724723815918
			],
			"translation":[
				-1.040941596031189,
				0,
				0
			]
		}
	],
	"materials":[
		{
			"doubleSided":true,
			"name":"Material.004",
			"pbrMetallicRoughness":{
				"baseColorFactor":[
					0.8004324436187744,
					0.7741392850875854,
					0.031901489943265915,
					1
				],
				"roughnessFactor":0.4126984179019928
			}
		},
		{
			"doubleSided":true,
			"name":"Material.003",
			"pbrMetallicRoughness":{
				"baseColorFactor":[
					0.8002121448516846,
					0.764459490776062,
					0.7200606465339661,
					1
				],
				"metallicFactor":0,
				"roughnessFactor":0.5
			}
		},
		{
			"doubleSided":true,
			"name":"Material.001",
			"pbrMetallicRoughness":{
				"baseColorFactor":[
					0,
					0.015252068638801575,
					0.8001260757446289,
					1
				],
				"metallicFactor":0,
				"roughnessFactor":0.5
			}
		},
		{
			"doubleSided":true,
			"name":"Material.002",
			"pbrMetallicRoughness":{
				"baseColorFactor":[
					0,
					0,
					0,
					1
				],
				"metallicFactor":0,
				"roughnessFactor":0.5
			}
		}
	],
	"meshes":[
		{
			"name":"Cylinder.007",
			"primitives":[
				{
					"attributes":{
						"POSITION":0,
						"NORMAL":1,
						"TEXCOORD_0":2
					},
					"indices":3,
					"material":0
				}
			]
		},
		{
			"name":"Cylinder.015",
			"primitives":[
				{
					"attributes":{
						"POSITION":4,
						"NORMAL":5,
						"TEXCOORD_0":6
					},
					"indices":3,
					"material":0
				}
			]
		},
		{
			"name":"Cylinder.016",
			"primitives":[
				{
					"attributes":{
						"POSITION":7,
						"NORMAL":8,
						"TEXCOORD_0":9
					},
					"indices":3,
					"material":0
				}
			]
		},
		{
			"name":"Cylinder.008",
			"primitives":[
				{
					"attributes":{
						"POSITION":10,
						"NORMAL":11,
						"TEXCOORD_0":12
					},
					"indices":13,
					"material":0
				}
			]
		},
		{
			"name":"Cylinder.009",
			"primitives":[
				{
					"attributes":{
						"POSITION":14,
						"NORMAL":15,
						"TEXCOORD_0":16
					},
					"indices":17,
					"material":0
				}
			]
		},
		{
			"name":"Cylinder.010",
			"primitives":[
				{
					"attributes":{
						"POSITION":18,
						"NORMAL":19,
						"TEXCOORD_0":20
					},
					"indices":21,
					"material":0
				}
			]
		},
		{
			"name":"Cylinder.003",
			"primitives":[
				{
					"attributes":{
						"POSITION":22,
						"NORMAL":23,
						"TEXCOORD_0":24
					},
					"indices":25,
					"material":0
				},
				{
					"attributes":{
						"POSITION":26,
						"NORMAL":27,
						"TEXCOORD_0":28
					},
					"indices":29,
					"material":1
				},
				{
					"attributes":{
						"POSITION":30,
						"NORMAL":31,
						"TEXCOORD_0":32
					},
					"indices":29,
					"material":2
				},
				{
					"attributes":{
						"POSITION":33,
						"NORMAL":34,
						"TEXCOORD_0":35
					},
					"indices":36,
					"material":3
				}
			]
		}
	],
	"accessors":[
		{
			"bufferView":0,
			"componentType":5126,
			"count":108,
			"max":[
				1.3448052406311035,
				1.9264068603515625,
				-0.5158346891403198
			],
			"min":[
				-1.6034265756607056,
				-1.4343676567077637,
				-4.2832112312316895
			],
			"type":"VEC3"
		},
		{
			"bufferView":1,
			"componentType":5126,
			"count":108,
			"type":"VEC3"
		},
		{
			"bufferView":2,
			"componentType":5126,
			"count":108,
			"type":"VEC2"
		},
		{
			"bufferView":3,
			"componentType":5123,
			"count":180,
			"type":"SCALAR"
		},
		{
			"bufferView":4,
			"componentType":5126,
			"count":108,
			"max":[
				-0.15638184547424316,
				8.06848430633545,
				0.9648427963256836
			],
			"min":[
				-3.104613780975342,
				5.19135856628418,
				-2.8025338649749756
			],
			"type":"VEC3"
		},
		{
			"bufferView":5,
			"componentType":5126,
			"count":108,
			"type":"VEC3"
		},
		{
			"bufferView":6,
			"componentType":5126,
			"count":108,
			"type":"VEC2"
		},
		{
			"bufferView":7,
			"componentType":5126,
			"count":108,
			"max":[
				1.6580058336257935,
				9.587013244628906,
				1.1328768730163574
			],
			"min":[
				-1.2902259826660156,
				6.580682277679443,
				-2.6344997882843018
			],
			"type":"VEC3"
		},
		{
			"bufferView":8,
			"componentType":5126,
			"count":108,
			"type":"VEC3"
		},
		{
			"bufferView":9,
			"componentType":5126,
			"count":108,
			"type":"VEC2"
		},
		{
			"bufferView":10,
			"componentType":5126,
			"count":108,
			"max":[
				2.8805389404296875,
				3.336066246032715,
				2.5205507278442383
			],
			"min":[
				0.05810427665710449,
				-18.053451538085938,
				-0.9591183662414551
			],
			"type":"VEC3"
		},
		{
			"bufferView":11,
			"componentType":5126,
			"count":108,
			"type":"VEC3"
		},
		{
			"bufferView":12,
			"componentType":5126,
			"count":108,
			"type":"VEC2"
		},
		{
			"bufferView":13,
			"componentType":5123,
			"count":180,
			"type":"SCALAR"
		},
		{
			"bufferView":14,
			"componentType":5126,
			"count":108,
			"max":[
				1.344805121421814,
				1.9264068603515625,
				4.283210754394531
			],
			"min":[
				-1.6034263372421265,
				-1.4343676567077637,
				0.5158344507217407
			],
			"type":"VEC3"
		},
		{
			"bufferView":15,
			"componentType":5126,
			"count":108,
			"type":"VEC3"
		},
		{
			"bufferView":16,
			"componentType":5126,
			"count":108,
			"type":"VEC2"
		},
		{
			"bufferView":17,
			"componentType":5123,
			"count":180,
			"type":"SCALAR"
		},
		{
			"bufferView":18,
			"componentType":5126,
			"count":108,
			"max":[
				0.991045355796814,
				4.613469123840332,
				1.6200031042099
			],
			"min":[
				-1.944322109222412,
				-23.36749267578125,
				-0.16640344262123108
			],
			"type":"VEC3"
		},
		{
			"bufferView":19,
			"componentType":5126,
			"count":108,
			"type":"VEC3"
		},
		{
			"bufferView":20,
			"componentType":5126,
			"count":108,
			"type":"VEC2"
		},
		{
			"bufferView":21,
			"componentType":5123,
			"count":180,
			"type":"SCALAR"
		},
		{
			"bufferView":22,
			"componentType":5126,
			"count":396,
			"max":[
				1.0205439329147339,
				4.420077323913574,
				1.4272394180297852
			],
			"min":[
				-1.0205439329147339,
				-2.894500732421875,
				-1.4272394180297852
			],
			"type":"VEC3"
		},
		{
			"bufferView":23,
			"componentType":5126,
			"count":396,
			"type":"VEC3"
		},
		{
			"bufferView":24,
			"componentType":5126,
			"count":396,
			"type":"VEC2"
		},
		{
			"bufferView":25,
			"componentType":5123,
			"count":660,
			"type":"SCALAR"
		},
		{
			"bufferView":26,
			"componentType":5126,
			"count":180,
			"max":[
				0.9005579948425293,
				3.118144989013672,
				1.3421027660369873
			],
			"min":[
				-0.9005579352378845,
				0.8361209630966187,
				-1.3421026468276978
			],
			"type":"VEC3"
		},
		{
			"bufferView":27,
			"componentType":5126,
			"count":180,
			"type":"VEC3"
		},
		{
			"bufferView":28,
			"componentType":5126,
			"count":180,
			"type":"VEC2"
		},
		{
			"bufferView":29,
			"componentType":5123,
			"count":300,
			"type":"SCALAR"
		},
		{
			"bufferView":30,
			"componentType":5126,
			"count":180,
			"max":[
				0.8068316578865051,
				3.6980528831481934,
				1.2338768243789673
			],
			"min":[
				-0.8068315386772156,
				2.0830037593841553,
				-1.2338768243789673
			],
			"type":"VEC3"
		},
		{
			"bufferView":31,
			"componentType":5126,
			"count":180,
			"type":"VEC3"
		},
		{
			"bufferView":32,
			"componentType":5126,
			"count":180,
			"type":"VEC2"
		},
		{
			"bufferView":33,
			"componentType":5126,
			"count":180,
			"max":[
				0.7342047095298767,
				4.952633380889893,
				1.1664916276931763
			],
			"min":[
				-0.7342047095298767,
				0.9710665941238403,
				-1.1664916276931763
			],
			"type":"VEC3"
		},
		{
			"bufferView":34,
			"componentType":5126,
			"count":180,
			"type":"VEC3"
		},
		{
			"bufferView":35,
			"componentType":5126,
			"count":180,
			"type":"VEC2"
		},
		{
			"bufferView":36,
			"componentType":5123,
			"count":300,
			"type":"SCALAR"
		}
	],
	"bufferViews":[
		{
			"buffer":0,
			"byteLength":1296,
			"byteOffset":0,
			"target":34962
		},
		{
			"buffer":0,
			"byteLength":1296,
			"byteOffset":1296,
			"target":34962
		},
		{
			"buffer":0,
			"byteLength":864,
			"byteOffset":2592,
			"target":34962
		},
		{
			"buffer":0,
			"byteLength":360,
			"byteOffset":3456,
			"target":34963
		},
		{
			"buffer":0,
			"byteLength":1296,
			"byteOffset":3816,
			"target":34962
		},
		{
			"buffer":0,
			"byteLength":1296,
			"byteOffset":5112,
			"target":34962
		},
		{
			"buffer":0,
			"byteLength":864,
			"byteOffset":6408,
			"target":34962
		},
		{
			"buffer":0,
			"byteLength":1296,
			"byteOffset":7272,
			"target":34962
		},
		{
			"buffer":0,
			"byteLength":1296,
			"byteOffset":8568,
			"target":34962
		},
		{
			"buffer":0,
			"byteLength":864,
			"byteOffset":9864,
			"target":34962
		},
		{
			"buffer":0,
			"byteLength":1296,
			"byteOffset":10728,
			"target":34962
		},
		{
			"buffer":0,
			"byteLength":1296,
			"byteOffset":12024,
			"target":34962
		},
		{
			"buffer":0,
			"byteLength":864,
			"byteOffset":13320,
			"target":34962
		},
		{
			"buffer":0,
			"byteLength":360,
			"byteOffset":14184,
			"target":34963
		},
		{
			"buffer":0,
			"byteLength":1296,
			"byteOffset":14544,
			"target":34962
		},
		{
			"buffer":0,
			"byteLength":1296,
			"byteOffset":15840,
			"target":34962
		},
		{
			"buffer":0,
			"byteLength":864,
			"byteOffset":17136,
			"target":34962
		},
		{
			"buffer":0,
			"byteLength":360,
			"byteOffset":18000,
			"target":34963
		},
		{
			"buffer":0,
			"byteLength":1296,
			"byteOffset":18360,
			"target":34962
		},
		{
			"buffer":0,
			"byteLength":1296,
			"byteOffset":19656,
			"target":34962
		},
		{
			"buffer":0,
			"byteLength":864,
			"byteOffset":20952,
			"target":34962
		},
		{
			"buffer":0,
			"byteLength":360,
			"byteOffset":21816,
			"target":34963
		},
		{
			"buffer":0,
			"byteLength":4752,
			"byteOffset":22176,
			"target":34962
		},
		{
			"buffer":0,
			"byteLength":4752,
			"byteOffset":26928,
			"target":34962
		},
		{
			"buffer":0,
			"byteLength":3168,
			"byteOffset":31680,
			"target":34962
		},
		{
			"buffer":0,
			"byteLength":1320,
			"byteOffset":34848,
			"target":34963
		},
		{
			"buffer":0,
			"byteLength":2160,
			"byteOffset":36168,
			"target":34962
		},
		{
			"buffer":0,
			"byteLength":2160,
			"byteOffset":38328,
			"target":34962
		},
		{
			"buffer":0,
			"byteLength":1440,
			"byteOffset":40488,
			"target":34962
		},
		{
			"buffer":0,
			"byteLength":600,
			"byteOffset":41928,
			"target":34963
		},
		{
			"buffer":0,
			"byteLength":2160,
			"byteOffset":42528,
			"target":34962
		},
		{
			"buffer":0,
			"byteLength":2160,
			"byteOffset":44688,
			"target":34962
		},
		{
			"buffer":0,
			"byteLength":1440,
			"byteOffset":46848,
			"target":34962
		},
		{
			"buffer":0,
			"byteLength":2160,
			"byteOffset":48288,
			"target":34962
		},
		{
			"buffer":0,
			"byteLength":2160,
			"byteOffset":50448,
			"target":34962
		},
		{
			"buffer":0,
			"byteLength":1440,
			"byteOffset":52608,
			"target":34962
		},
		{
			"buffer":0,
			"byteLength":600,
			"byteOffset":54048,
			"target":34963
		}
	],
	"buffers":[
		{
			"byteLength":54648,
			"uri":"Biblically%20Accurate%20Hexagons.bin"
		}
	]
}
