{
	"asset":{
		"generator":"Khronos glTF Blender I/O v4.5.48",
		"version":"2.0"
	},
	"scene":0,
	"scenes":[
		{
			"name":"Scene",
			"nodes":[
				36
			]
		}
	],
	"nodes":[
		{
			"mesh":0,
			"name":"Arm.L.00211",
			"translation":[
				0,
				-0.24187523126602173,
				0
			]
		},
		{
			"children":[
				0
			],
			"mesh":1,
			"name":"Arm.L.00111",
			"rotation":[
				-0.06133042275905609,
				0,
				0.10622744262218475,
				0.9924486875534058
			],
			"translation":[
				0,
				-0.34783631563186646,
				0
			]
		},
		{
			"children":[
				1
			],
			"mesh":2,
			"name":"Arm.L",
			"rotation":[
				-0.6123724579811096,
				0,
				-0.3535533845424652,
				0.7071067690849304
			],
			"translation":[
				0.060177627950906754,
				-0.3071839213371277,
				-0.10423079133033752
			]
		},
		{
			"mesh":3,
			"name":"Arm.L.003",
			"translation":[
				0,
				-0.2418752759695053,
				0
			]
		},
		{
			"children":[
				3
			],
			"mesh":4,
			"name":"Arm.L.002",
			"rotation":[
				-0.06133042275905609,
				0,
				0.10622744262218475,
				0.9924486875534058
			],
			"translation":[
				0,
				-0.34783631563186646,
				0
			]
		},
		{
			"children":[
				4
			],
			"mesh":5,
			"name":"Arm.L.001",
			"rotation":[
				-0.6123724579811096,
				0,
				-0.3535533845424652,
				0.7071067690849304
			],
			"translation":[
				0.06017765402793884,
				0.3071839213371277,
				-0.10423080623149872
			]
		},
		{
			"mesh":6,
			"name":"Beard",
			"rotation":[
				0,
				0,
				-0.23884926736354828,
				0.9710566401481628
			],
			"translation":[
				0.044832758605480194,
				-0.12817728519439697,
				0
			]
		},
		{
			"mesh":7,
			"name":"Eye.L",
			"rotation":[
				0,
				0,
				-0.7071068286895752,
				0.7071068286895752
			],
			"translation":[
				0.134800523519516,
				0.036313772201538086,
				-0.07421287149190903
			]
		},
		{
			"mesh":8,
			"name":"Eye.L.001",
			"rotation":[
				0,
				0,
				-0.7071068286895752,
				0.7071068286895752
			],
			"translation":[
				0.13480053842067719,
				0.036313772201538086,
				0.07421285659074783
			]
		},
		{
			"mesh":9,
			"name":"Eyebrow",
			"rotation":[
				-0.06117876246571541,
				0.35237008333206177,
				0.04100481793284416,
				0.9329582452774048
			],
			"translation":[
				0.09456934779882431,
				0.08323252201080322,
				-0.07492081075906754
			]
		},
		{
			"mesh":10,
			"name":"Eyebrow.001",
			"rotation":[
				-0.06117876246571541,
				0.35237008333206177,
				0.04100481793284416,
				0.9329582452774048
			],
			"translation":[
				0.09456934779882431,
				0.08323252201080322,
				0.07492079585790634
			]
		},
		{
			"mesh":11,
			"name":"Eyes.001",
			"rotation":[
				0,
				0,
				-0.7071068286895752,
				0.7071068286895752
			],
			"translation":[
				0.1421099603176117,
				0.036313772201538086,
				-0.07421287149190903
			]
		},
		{
			"mesh":12,
			"name":"Eyes.002",
			"rotation":[
				0,
				0,
				-0.7071068286895752,
				0.7071068286895752
			],
			"translation":[
				0.15153491497039795,
				0.036313772201538086,
				-0.07421287149190903
			]
		},
		{
			"mesh":13,
			"name":"Eyes.003",
			"rotation":[
				0,
				0,
				-0.7071068286895752,
				0.7071068286895752
			],
			"translation":[
				0.1421099752187729,
				0.036313772201538086,
				0.07421285659074783
			]
		},
		{
			"mesh":14,
			"name":"Eyes.004",
			"rotation":[
				0,
				0,
				-0.7071068286895752,
				0.7071068286895752
			],
			"translation":[
				0.15153492987155914,
				0.036313772201538086,
				0.07421285659074783
			]
		},
		{
			"mesh":15,
			"name":"Hair",
			"rotation":[
				0,
				0,
				-0.08941885828971863,
				0.9959942102432251
			],
			"translation":[
				-0.05014542490243912,
				0.06286036968231201,
				0
			]
		},
		{
			"mesh":16,
			"name":"Hat",
			"translation":[
				0.00020096451044082642,
				-0.08413925766944885,
				0
			]
		},
		{
			"children":[
				16
			],
			"mesh":17,
			"name":"Hat.001",
			"rotation":[
				0,
				0,
				0.030840354040265083,
				0.9995243549346924
			],
			"translation":[
				-0.019945040345191956,
				0.26237547397613525,
				0
			]
		},
		{
			"mesh":18,
			"name":"Moustache",
			"rotation":[
				0.005100687500089407,
				0.258768767118454,
				-0.01903604529798031,
				0.9657382369041443
			],
			"translation":[
				0.18402452766895294,
				-0.08821940422058105,
				0
			]
		},
		{
			"mesh":19,
			"name":"Straw.001",
			"rotation":[
				0.13714128732681274,
				0.018450144678354263,
				0.007433815393596888,
				0.9903517961502075
			],
			"translation":[
				0,
				0.11146627366542816,
				0.010875463485717773
			]
		},
		{
			"mesh":20,
			"name":"Straw.002",
			"rotation":[
				-0.0625866949558258,
				0.17104887962341309,
				0.07378368079662323,
				0.9805004596710205
			],
			"translation":[
				-0.008026037365198135,
				0.10711604356765747,
				-0.0035484209656715393
			]
		},
		{
			"children":[
				19,
				20
			],
			"mesh":21,
			"name":"Straw",
			"rotation":[
				0.02556447498500347,
				-0.07346348464488983,
				-0.6540845036506653,
				0.7524114847183228
			],
			"translation":[
				0.07240940630435944,
				0.011386922560632229,
				-0.03530536964535713
			]
		},
		{
			"children":[
				21
			],
			"mesh":22,
			"name":"Mouth",
			"rotation":[
				0.03853291645646095,
				0.25593456625938416,
				-0.1438068002462387,
				0.955160915851593
			],
			"translation":[
				0.16779890656471252,
				-0.1188129186630249,
				0
			]
		},
		{
			"mesh":23,
			"name":"Nose",
			"rotation":[
				-0.08301614224910736,
				0.24514411389827728,
				0.3098204433917999,
				0.9148901700973511
			],
			"translation":[
				0.14455944299697876,
				-0.027568697929382324,
				0
			]
		},
		{
			"children":[
				6,
				7,
				8,
				9,
				10,
				11,
				12,
				13,
				14,
				15,
				17,
				18,
				22,
				23
			],
			"mesh":24,
			"name":"Head",
			"translation":[
				0.0342584103345871,
				0.17192435264587402,
				0
			]
		},
		{
			"children":[
				24
			],
			"mesh":25,
			"name":"Neck",
			"rotation":[
				-0.6830127239227295,
				-0.1830126941204071,
				-0.1830126792192459,
				0.6830126643180847
			],
			"translation":[
				0.06588622182607651,
				0,
				-0.1826351135969162
			]
		},
		{
			"mesh":26,
			"name":"Suspenders",
			"translation":[
				0.00368765601888299,
				-0.17186729609966278,
				-0.006387252360582352
			]
		},
		{
			"mesh":27,
			"name":"Suspenders.001",
			"translation":[
				0.0036876690573990345,
				0.17186729609966278,
				-0.006387259811162949
			]
		},
		{
			"mesh":28,
			"name":"Leg.L.002",
			"translation":[
				0.025016961619257927,
				-0.23681418597698212,
				0.01444356981664896
			]
		},
		{
			"children":[
				28
			],
			"mesh":29,
			"name":"Leg.L.001",
			"rotation":[
				0.020315038040280342,
				0,
				-0.03518664836883545,
				0.9991742968559265
			],
			"translation":[
				-0.012855090200901031,
				-0.3705427944660187,
				-0.0074219005182385445
			]
		},
		{
			"children":[
				29
			],
			"mesh":30,
			"name":"Leg.L",
			"rotation":[
				-0.011880912818014622,
				0.25854623317718506,
				0.044340167194604874,
				0.9649075865745544
			],
			"translation":[
				0,
				0.02279353141784668,
				-0.10742329061031342
			]
		},
		{
			"mesh":31,
			"name":"Leg.L.005",
			"translation":[
				0.025016961619257927,
				-0.23681412637233734,
				0.014443564228713512
			]
		},
		{
			"children":[
				31
			],
			"mesh":32,
			"name":"Leg.L.004",
			"rotation":[
				0.020315038040280342,
				0,
				-0.03518664836883545,
				0.9991742968559265
			],
			"translation":[
				-0.012855080887675285,
				-0.3705427348613739,
				-0.007421885617077351
			]
		},
		{
			"children":[
				32
			],
			"mesh":33,
			"name":"Leg.L.003",
			"rotation":[
				-0.011880912818014622,
				0.25854623317718506,
				0.044340167194604874,
				0.9649075865745544
			],
			"translation":[
				0,
				0.02279353141784668,
				0.10742329061031342
			]
		},
		{
			"children":[
				30,
				33
			],
			"mesh":34,
			"name":"Torso.002",
			"translation":[
				0,
				-0.17396360635757446,
				0
			]
		},
		{
			"children":[
				34
			],
			"mesh":35,
			"name":"Torso.001",
			"rotation":[
				-0.6830127239227295,
				-0.1830126941204071,
				-0.1830126792192459,
				0.6830126643180847
			],
			"translation":[
				-0.07923756539821625,
				0,
				0.13724347949028015
			]
		},
		{
			"children":[
				2,
				5,
				25,
				26,
				27,
				35
			],
			"mesh":36,
			"name":"Torso",
			"rotation":[
				0.3535533845424652,
				-0.3535533845424652,
				0.6123724579811096,
				0.6123723983764648
			],
			"translation":[
				-1.9624829292297363e-05,
				1.0701128244400024,
				-2.421438694000244e-06
			]
		}
	],
	"materials":[
		{
			"doubleSided":true,
			"name":"Skin",
			"pbrMetallicRoughness":{
				"metallicFactor":0
			}
		},
		{
			"doubleSided":true,
			"name":"Sleeves",
			"pbrMetallicRoughness":{
				"baseColorFactor":[
					0.29482921957969666,
					0.37434324622154236,
					0.27414923906326294,
					1
				],
				"metallicFactor":0
			}
		},
		{
			"doubleSided":true,
			"name":"Hair",
			"pbrMetallicRoughness":{
				"metallicFactor":0
			}
		},
		{
			"doubleSided":true,
			"name":"Teeth",
			"pbrMetallicRoughness":{
				"baseColorFactor":[
					0.8004492521286011,
					0.7298637628555298,
					0.7511483430862427,
					1
				],
				"metallicFactor":0,
				"roughnessFactor":0
			}
		},
		{
			"doubleSided":true,
			"name":"Iris",
			"pbrMetallicRoughness":{
				"baseColorFactor":[
					0.001965563278645277,
					0,
					0.4076300859451294,
					1
				],
				"metallicFactor":0,
				"roughnessFactor":0
			}
		},
		{
			"doubleSided":true,
			"name":"Pupil",
			"pbrMetallicRoughness":{
				"baseColorFactor":[
					0,
					0,
					0,
					1
				],
				"metallicFactor":0,
				"roughnessFactor":0
			}
		},
		{
			"doubleSided":true,
			"name":"Straw",
			"pbrMetallicRoughness":{
				"metallicFactor":0
			}
		},
		{
			"doubleSided":true,
			"name":"Leather",
			"pbrMetallicRoughness":{
				"baseColorFactor":[
					0.06892567873001099,
					0.02309735119342804,
					0.010570707730948925,
					1
				],
				"metallicFactor":0
			}
		},
		{
			"doubleSided":true,
			"name":"Pants",
			"pbrMetallicRoughness":{
				"metallicFactor":0
			}
		},
		{
			"doubleSided":true,
			"name":"Shirt",
			"pbrMetallicRoughness":{
				"metallicFactor":0
			}
		}
	],
	"meshes":[
		{
			"name":"Cylinder.013",
			"primitives":[
				{
					"attributes":{
						"POSITION":0,
						"NORMAL":1,
						"TEXCOORD_0":2
					},
					"indices":3,
					"material":0
				}
			]
		},
		{
			"name":"Cylinder.012",
			"primitives":[
				{
					"attributes":{
						"POSITION":4,
						"NORMAL":5,
						"TEXCOORD_0":6
					},
					"indices":3,
					"material":1
				}
			]
		},
		{
			"name":"Cylinder.011",
			"primitives":[
				{
					"attributes":{
						"POSITION":7,
						"NORMAL":8,
						"TEXCOORD_0":9
					},
					"indices":3,
					"material":1
				}
			]
		},
		{
			"name":"Cylinder.046",
			"primitives":[
				{
					"attributes":{
						"POSITION":10,
						"NORMAL":11,
						"TEXCOORD_0":12
					},
					"indices":13,
					"material":0
				}
			]
		},
		{
			"name":"Cylinder.045",
			"primitives":[
				{
					"attributes":{
						"POSITION":14,
						"NORMAL":15,
						"TEXCOORD_0":16
					},
					"indices":13,
					"material":1
				}
			]
		},
		{
			"name":"Cylinder.044",
			"primitives":[
				{
					"attributes":{
						"POSITION":17,
						"NORMAL":18,
						"TEXCOORD_0":19
					},
					"indices":13,
					"material":1
				}
			]
		},
		{
			"name":"Cylinder.029",
			"primitives":[
				{
					"attributes":{
						"POSITION":20,
						"NORMAL":21,
						"TEXCOORD_0":22
					},
					"indices":23,
					"material":2
				}
			]
		},
		{
			"name":"Cylinder.001",
			"primitives":[
				{
					"attributes":{
						"POSITION":24,
						"NORMAL":25,
						"TEXCOORD_0":26
					},
					"indices":3,
					"material":3
				}
			]
		},
		{
			"name":"Cylinder.050",
			"primitives":[
				{
					"attributes":{
						"POSITION":27,
						"NORMAL":28,
						"TEXCOORD_0":29
					},
					"indices":3,
					"material":3
				}
			]
		},
		{
			"name":"Cylinder.023",
			"primitives":[
				{
					"attributes":{
						"POSITION":30,
						"NORMAL":31,
						"TEXCOORD_0":32
					},
					"indices":23,
					"material":2
				}
			]
		},
		{
			"name":"Cylinder.053",
			"primitives":[
				{
					"attributes":{
						"POSITION":33,
						"NORMAL":34,
						"TEXCOORD_0":35
					},
					"indices":36,
					"material":2
				}
			]
		},
		{
			"name":"Cylinder.004",
			"primitives":[
				{
					"attributes":{
						"POSITION":37,
						"NORMAL":38,
						"TEXCOORD_0":39
					},
					"indices":3,
					"material":4
				}
			]
		},
		{
			"name":"Cylinder.005",
			"primitives":[
				{
					"attributes":{
						"POSITION":40,
						"NORMAL":41,
						"TEXCOORD_0":42
					},
					"indices":3,
					"material":5
				}
			]
		},
		{
			"name":"Cylinder.051",
			"primitives":[
				{
					"attributes":{
						"POSITION":43,
						"NORMAL":44,
						"TEXCOORD_0":45
					},
					"indices":3,
					"material":4
				}
			]
		},
		{
			"name":"Cylinder.052",
			"primitives":[
				{
					"attributes":{
						"POSITION":46,
						"NORMAL":47,
						"TEXCOORD_0":48
					},
					"indices":3,
					"material":5
				}
			]
		},
		{
			"name":"Cylinder.021",
			"primitives":[
				{
					"attributes":{
						"POSITION":49,
						"NORMAL":50,
						"TEXCOORD_0":51
					},
					"indices":52,
					"material":2
				}
			]
		},
		{
			"name":"Cylinder.002",
			"primitives":[
				{
					"attributes":{
						"POSITION":53,
						"NORMAL":54,
						"TEXCOORD_0":55
					},
					"indices":3,
					"material":6
				}
			]
		},
		{
			"name":"Cylinder.003",
			"primitives":[
				{
					"attributes":{
						"POSITION":56,
						"NORMAL":57,
						"TEXCOORD_0":58
					},
					"indices":3,
					"material":6
				}
			]
		},
		{
			"name":"Cylinder.030",
			"primitives":[
				{
					"attributes":{
						"POSITION":59,
						"NORMAL":60,
						"TEXCOORD_0":61
					},
					"indices":3,
					"material":2
				}
			]
		},
		{
			"name":"Cylinder.019",
			"primitives":[
				{
					"attributes":{
						"POSITION":62,
						"NORMAL":63,
						"TEXCOORD_0":64
					},
					"indices":3,
					"material":6
				}
			]
		},
		{
			"name":"Cylinder.020",
			"primitives":[
				{
					"attributes":{
						"POSITION":65,
						"NORMAL":66,
						"TEXCOORD_0":67
					},
					"indices":3,
					"material":6
				}
			]
		},
		{
			"name":"Cylinder.018",
			"primitives":[
				{
					"attributes":{
						"POSITION":68,
						"NORMAL":69,
						"TEXCOORD_0":70
					},
					"indices":3,
					"material":6
				}
			]
		},
		{
			"name":"Cylinder.006",
			"primitives":[
				{
					"attributes":{
						"POSITION":71,
						"NORMAL":72,
						"TEXCOORD_0":73
					},
					"indices":3,
					"material":3
				}
			]
		},
		{
			"name":"Cylinder.007",
			"primitives":[
				{
					"attributes":{
						"POSITION":74,
						"NORMAL":75,
						"TEXCOORD_0":76
					},
					"indices":3,
					"material":0
				}
			]
		},
		{
			"name":"Cylinder",
			"primitives":[
				{
					"attributes":{
						"POSITION":77,
						"NORMAL":78,
						"TEXCOORD_0":79
					},
					"indices":23,
					"material":0
				}
			]
		},
		{
			"name":"Cylinder.010",
			"primitives":[
				{
					"attributes":{
						"POSITION":80,
						"NORMAL":81,
						"TEXCOORD_0":82
					},
					"indices":3,
					"material":0
				}
			]
		},
		{
			"name":"Cylinder.031",
			"primitives":[
				{
					"attributes":{
						"POSITION":83,
						"NORMAL":84,
						"TEXCOORD_0":85
					},
					"indices":86,
					"material":7
				}
			]
		},
		{
			"name":"Cylinder.054",
			"primitives":[
				{
					"attributes":{
						"POSITION":87,
						"NORMAL":88,
						"TEXCOORD_0":89
					},
					"indices":86,
					"material":7
				}
			]
		},
		{
			"name":"Cylinder.016",
			"primitives":[
				{
					"attributes":{
						"POSITION":90,
						"NORMAL":91,
						"TEXCOORD_0":92
					},
					"indices":3,
					"material":7
				}
			]
		},
		{
			"name":"Cylinder.015",
			"primitives":[
				{
					"attributes":{
						"POSITION":93,
						"NORMAL":94,
						"TEXCOORD_0":95
					},
					"indices":3,
					"material":8
				}
			]
		},
		{
			"name":"Cylinder.014",
			"primitives":[
				{
					"attributes":{
						"POSITION":96,
						"NORMAL":97,
						"TEXCOORD_0":98
					},
					"indices":3,
					"material":8
				}
			]
		},
		{
			"name":"Cylinder.049",
			"primitives":[
				{
					"attributes":{
						"POSITION":99,
						"NORMAL":100,
						"TEXCOORD_0":101
					},
					"indices":102,
					"material":7
				}
			]
		},
		{
			"name":"Cylinder.048",
			"primitives":[
				{
					"attributes":{
						"POSITION":103,
						"NORMAL":104,
						"TEXCOORD_0":105
					},
					"indices":102,
					"material":8
				}
			]
		},
		{
			"name":"Cylinder.047",
			"primitives":[
				{
					"attributes":{
						"POSITION":106,
						"NORMAL":107,
						"TEXCOORD_0":108
					},
					"indices":102,
					"material":8
				}
			]
		},
		{
			"name":"Cylinder.027",
			"primitives":[
				{
					"attributes":{
						"POSITION":109,
						"NORMAL":110,
						"TEXCOORD_0":111
					},
					"indices":3,
					"material":7
				}
			]
		},
		{
			"name":"Cylinder.009",
			"primitives":[
				{
					"attributes":{
						"POSITION":112,
						"NORMAL":113,
						"TEXCOORD_0":114
					},
					"indices":3,
					"material":9
				}
			]
		},
		{
			"name":"Cylinder.008",
			"primitives":[
				{
					"attributes":{
						"POSITION":115,
						"NORMAL":116,
						"TEXCOORD_0":117
					},
					"indices":3,
					"material":9
				}
			]
		}
	],
	"accessors":[
		{
			"bufferView":0,
			"componentType":5126,
			"count":36,
			"max":[
				0.07346389442682266,
				0.026646999642252922,
				0.08148430287837982
			],
			"min":[
				-0.06187820062041283,
				-0.06308399885892868,
				-0.07479526102542877
			],
			"type":"VEC3"
		},
		{
			"bufferView":1,
			"componentType":5126,
			"count":36,
			"type":"VEC3"
		},
		{
			"bufferView":2,
			"componentType":5126,
			"count":36,
			"type":"VEC2"
		},
		{
			"bufferView":3,
			"componentType":5123,
			"count":60,
			"type":"SCALAR"
		},
		{
			"bufferView":4,
			"componentType":5126,
			"count":36,
			"max":[
				0.06713538616895676,
				0.026647023856639862,
				0.07417678833007812
			],
			"min":[
				-0.05554969608783722,
				-0.26457497477531433,
				-0.06748774647712708
			],
			"type":"VEC3"
		},
		{
			"bufferView":5,
			"componentType":5126,
			"count":36,
			"type":"VEC3"
		},
		{
			"bufferView":6,
			"componentType":5126,
			"count":36,
			"type":"VEC2"
		},
		{
			"bufferView":7,
			"componentType":5126,
			"count":36,
			"max":[
				0.07679358869791031,
				0.027473751455545425,
				0.08867362141609192
			],
			"min":[
				-0.07679358869791031,
				-0.33710163831710815,
				-0.08867357671260834
			],
			"type":"VEC3"
		},
		{
			"bufferView":8,
			"componentType":5126,
			"count":36,
			"type":"VEC3"
		},
		{
			"bufferView":9,
			"componentType":5126,
			"count":36,
			"type":"VEC2"
		},
		{
			"bufferView":10,
			"componentType":5126,
			"count":36,
			"max":[
				0.0715329498052597,
				0.02664700150489807,
				0.07813975214958191
			],
			"min":[
				-0.06380912661552429,
				-0.06308400630950928,
				-0.07813982665538788
			],
			"type":"VEC3"
		},
		{
			"bufferView":11,
			"componentType":5126,
			"count":36,
			"type":"VEC3"
		},
		{
			"bufferView":12,
			"componentType":5126,
			"count":36,
			"type":"VEC2"
		},
		{
			"bufferView":13,
			"componentType":5123,
			"count":60,
			"type":"SCALAR"
		},
		{
			"bufferView":14,
			"componentType":5126,
			"count":36,
			"max":[
				0.06520447134971619,
				0.02664703130722046,
				0.07083220779895782
			],
			"min":[
				-0.057480622082948685,
				-0.26457497477531433,
				-0.07083234190940857
			],
			"type":"VEC3"
		},
		{
			"bufferView":15,
			"componentType":5126,
			"count":36,
			"type":"VEC3"
		},
		{
			"bufferView":16,
			"componentType":5126,
			"count":36,
			"type":"VEC2"
		},
		{
			"bufferView":17,
			"componentType":5126,
			"count":36,
			"max":[
				0.08065550774335861,
				0.027473747730255127,
				0.08198454976081848
			],
			"min":[
				-0.0729316845536232,
				-0.33710163831710815,
				-0.09536264836788177
			],
			"type":"VEC3"
		},
		{
			"bufferView":18,
			"componentType":5126,
			"count":36,
			"type":"VEC3"
		},
		{
			"bufferView":19,
			"componentType":5126,
			"count":36,
			"type":"VEC2"
		},
		{
			"bufferView":20,
			"componentType":5126,
			"count":36,
			"max":[
				0.12328606843948364,
				0.03424660861492157,
				0.12110956758260727
			],
			"min":[
				-0.12328606843948364,
				-0.03424660861492157,
				-0.12110956758260727
			],
			"type":"VEC3"
		},
		{
			"bufferView":21,
			"componentType":5126,
			"count":36,
			"type":"VEC3"
		},
		{
			"bufferView":22,
			"componentType":5126,
			"count":36,
			"type":"VEC2"
		},
		{
			"bufferView":23,
			"componentType":5123,
			"count":60,
			"type":"SCALAR"
		},
		{
			"bufferView":24,
			"componentType":5126,
			"count":36,
			"max":[
				0.04518701881170273,
				0.01243633683770895,
				0.05217747390270233
			],
			"min":[
				-0.04518701881170273,
				-0.01243633683770895,
				-0.05217747390270233
			],
			"type":"VEC3"
		},
		{
			"bufferView":25,
			"componentType":5126,
			"count":36,
			"type":"VEC3"
		},
		{
			"bufferView":26,
			"componentType":5126,
			"count":36,
			"type":"VEC2"
		},
		{
			"bufferView":27,
			"componentType":5126,
			"count":36,
			"max":[
				0.04518702253699303,
				0.012436341494321823,
				0.05217747390270233
			],
			"min":[
				-0.04518702253699303,
				-0.012436341494321823,
				-0.05217747390270233
			],
			"type":"VEC3"
		},
		{
			"bufferView":28,
			"componentType":5126,
			"count":36,
			"type":"VEC3"
		},
		{
			"bufferView":29,
			"componentType":5126,
			"count":36,
			"type":"VEC2"
		},
		{
			"bufferView":30,
			"componentType":5126,
			"count":36,
			"max":[
				0.08365024626255035,
				0.019617296755313873,
				0.07244323939085007
			],
			"min":[
				-0.08365024626255035,
				-0.019617296755313873,
				-0.07244323939085007
			],
			"type":"VEC3"
		},
		{
			"bufferView":31,
			"componentType":5126,
			"count":36,
			"type":"VEC3"
		},
		{
			"bufferView":32,
			"componentType":5126,
			"count":36,
			"type":"VEC2"
		},
		{
			"bufferView":33,
			"componentType":5126,
			"count":36,
			"max":[
				0.07875889539718628,
				0.033249545842409134,
				0.08497350662946701
			],
			"min":[
				-0.07875889539718628,
				-0.033249545842409134,
				-0.08497350662946701
			],
			"type":"VEC3"
		},
		{
			"bufferView":34,
			"componentType":5126,
			"count":36,
			"type":"VEC3"
		},
		{
			"bufferView":35,
			"componentType":5126,
			"count":36,
			"type":"VEC2"
		},
		{
			"bufferView":36,
			"componentType":5123,
			"count":60,
			"type":"SCALAR"
		},
		{
			"bufferView":37,
			"componentType":5126,
			"count":36,
			"max":[
				0.03030506521463394,
				0.008340534754097462,
				0.03499327600002289
			],
			"min":[
				-0.03030506521463394,
				-0.008340534754097462,
				-0.03499327600002289
			],
			"type":"VEC3"
		},
		{
			"bufferView":38,
			"componentType":5126,
			"count":36,
			"type":"VEC3"
		},
		{
			"bufferView":39,
			"componentType":5126,
			"count":36,
			"type":"VEC2"
		},
		{
			"bufferView":40,
			"componentType":5126,
			"count":36,
			"max":[
				0.017282145097851753,
				0.0047563775442540646,
				0.019955702126026154
			],
			"min":[
				-0.017282145097851753,
				-0.0047563775442540646,
				-0.019955702126026154
			],
			"type":"VEC3"
		},
		{
			"bufferView":41,
			"componentType":5126,
			"count":36,
			"type":"VEC3"
		},
		{
			"bufferView":42,
			"componentType":5126,
			"count":36,
			"type":"VEC2"
		},
		{
			"bufferView":43,
			"componentType":5126,
			"count":36,
			"max":[
				0.03030506707727909,
				0.008340537548065186,
				0.03499327600002289
			],
			"min":[
				-0.03030506707727909,
				-0.008340537548065186,
				-0.03499327600002289
			],
			"type":"VEC3"
		},
		{
			"bufferView":44,
			"componentType":5126,
			"count":36,
			"type":"VEC3"
		},
		{
			"bufferView":45,
			"componentType":5126,
			"count":36,
			"type":"VEC2"
		},
		{
			"bufferView":46,
			"componentType":5126,
			"count":36,
			"max":[
				0.017282146960496902,
				0.004756379406899214,
				0.019955702126026154
			],
			"min":[
				-0.017282146960496902,
				-0.004756379406899214,
				-0.019955702126026154
			],
			"type":"VEC3"
		},
		{
			"bufferView":47,
			"componentType":5126,
			"count":36,
			"type":"VEC3"
		},
		{
			"bufferView":48,
			"componentType":5126,
			"count":36,
			"type":"VEC2"
		},
		{
			"bufferView":49,
			"componentType":5126,
			"count":36,
			"max":[
				0.15356600284576416,
				0.1352730244398117,
				0.2226533591747284
			],
			"min":[
				-0.15356600284576416,
				-0.1352730244398117,
				-0.2226533591747284
			],
			"type":"VEC3"
		},
		{
			"bufferView":50,
			"componentType":5126,
			"count":36,
			"type":"VEC3"
		},
		{
			"bufferView":51,
			"componentType":5126,
			"count":36,
			"type":"VEC2"
		},
		{
			"bufferView":52,
			"componentType":5123,
			"count":60,
			"type":"SCALAR"
		},
		{
			"bufferView":53,
			"componentType":5126,
			"count":36,
			"max":[
				0.2555249035358429,
				0.05593330040574074,
				0.29505473375320435
			],
			"min":[
				-0.2555249035358429,
				-0.05593330040574074,
				-0.29505473375320435
			],
			"type":"VEC3"
		},
		{
			"bufferView":54,
			"componentType":5126,
			"count":36,
			"type":"VEC3"
		},
		{
			"bufferView":55,
			"componentType":5126,
			"count":36,
			"type":"VEC2"
		},
		{
			"bufferView":56,
			"componentType":5126,
			"count":36,
			"max":[
				0.1289364993572235,
				0.04091751202940941,
				0.14888301491737366
			],
			"min":[
				-0.1289364993572235,
				-0.04091751202940941,
				-0.14888301491737366
			],
			"type":"VEC3"
		},
		{
			"bufferView":57,
			"componentType":5126,
			"count":36,
			"type":"VEC3"
		},
		{
			"bufferView":58,
			"componentType":5126,
			"count":36,
			"type":"VEC2"
		},
		{
			"bufferView":59,
			"componentType":5126,
			"count":36,
			"max":[
				-7.465961182617775e-09,
				0.014780081808567047,
				0.0636313334107399
			],
			"min":[
				-0.216953307390213,
				-0.014780081808567047,
				-0.1908940076828003
			],
			"type":"VEC3"
		},
		{
			"bufferView":60,
			"componentType":5126,
			"count":36,
			"type":"VEC3"
		},
		{
			"bufferView":61,
			"componentType":5126,
			"count":36,
			"type":"VEC2"
		},
		{
			"bufferView":62,
			"componentType":5126,
			"count":36,
			"max":[
				0.009609604254364967,
				0.042638830840587616,
				0.011096211150288582
			],
			"min":[
				-0.009609604254364967,
				-0.042638830840587616,
				-0.011096211150288582
			],
			"type":"VEC3"
		},
		{
			"bufferView":63,
			"componentType":5126,
			"count":36,
			"type":"VEC3"
		},
		{
			"bufferView":64,
			"componentType":5126,
			"count":36,
			"type":"VEC2"
		},
		{
			"bufferView":65,
			"componentType":5126,
			"count":36,
			"max":[
				0.009609604254364967,
				0.04288571700453758,
				0.011096213944256306
			],
			"min":[
				-0.009609604254364967,
				-0.04288571700453758,
				-0.011096213944256306
			],
			"type":"VEC3"
		},
		{
			"bufferView":66,
			"componentType":5126,
			"count":36,
			"type":"VEC3"
		},
		{
			"bufferView":67,
			"componentType":5126,
			"count":36,
			"type":"VEC2"
		},
		{
			"bufferView":68,
			"componentType":5126,
			"count":36,
			"max":[
				0.010649642907083035,
				0.06894674152135849,
				0.012297146953642368
			],
			"min":[
				-0.010649642907083035,
				-0.06894674152135849,
				-0.012297146953642368
			],
			"type":"VEC3"
		},
		{
			"bufferView":69,
			"componentType":5126,
			"count":36,
			"type":"VEC3"
		},
		{
			"bufferView":70,
			"componentType":5126,
			"count":36,
			"type":"VEC2"
		},
		{
			"bufferView":71,
			"componentType":5126,
			"count":36,
			"max":[
				-7.21626580713064e-09,
				0.023529594764113426,
				0.06053442507982254
			],
			"min":[
				-0.2096974104642868,
				-0.023529594764113426,
				-0.18160328269004822
			],
			"type":"VEC3"
		},
		{
			"bufferView":72,
			"componentType":5126,
			"count":36,
			"type":"VEC3"
		},
		{
			"bufferView":73,
			"componentType":5126,
			"count":36,
			"type":"VEC2"
		},
		{
			"bufferView":74,
			"componentType":5126,
			"count":36,
			"max":[
				0.03580915555357933,
				0.05226830765604973,
				0.04134884849190712
			],
			"min":[
				-0.03580915555357933,
				-0.05226830765604973,
				-0.04134884849190712
			],
			"type":"VEC3"
		},
		{
			"bufferView":75,
			"componentType":5126,
			"count":36,
			"type":"VEC3"
		},
		{
			"bufferView":76,
			"componentType":5126,
			"count":36,
			"type":"VEC2"
		},
		{
			"bufferView":77,
			"componentType":5126,
			"count":36,
			"max":[
				0.16144350171089172,
				0.16144350171089172,
				0.13981416821479797
			],
			"min":[
				-0.16144350171089172,
				-0.16144350171089172,
				-0.13981416821479797
			],
			"type":"VEC3"
		},
		{
			"bufferView":78,
			"componentType":5126,
			"count":36,
			"type":"VEC3"
		},
		{
			"bufferView":79,
			"componentType":5126,
			"count":36,
			"type":"VEC2"
		},
		{
			"bufferView":80,
			"componentType":5126,
			"count":36,
			"max":[
				0.09564923495054245,
				0.11044622212648392,
				0.11044622212648392
			],
			"min":[
				-0.09564923495054245,
				-0.11044622212648392,
				-0.11044622212648392
			],
			"type":"VEC3"
		},
		{
			"bufferView":81,
			"componentType":5126,
			"count":36,
			"type":"VEC3"
		},
		{
			"bufferView":82,
			"componentType":5126,
			"count":36,
			"type":"VEC2"
		},
		{
			"bufferView":83,
			"componentType":5126,
			"count":72,
			"max":[
				0.17096666991710663,
				0.043221648782491684,
				0.29736894369125366
			],
			"min":[
				-0.2555476725101471,
				-0.016641519963741302,
				-0.1974152773618698
			],
			"type":"VEC3"
		},
		{
			"bufferView":84,
			"componentType":5126,
			"count":72,
			"type":"VEC3"
		},
		{
			"bufferView":85,
			"componentType":5126,
			"count":72,
			"type":"VEC2"
		},
		{
			"bufferView":86,
			"componentType":5123,
			"count":120,
			"type":"SCALAR"
		},
		{
			"bufferView":87,
			"componentType":5126,
			"count":72,
			"max":[
				0.17096666991710663,
				0.016641538590192795,
				0.29736894369125366
			],
			"min":[
				-0.2555476725101471,
				-0.04322166368365288,
				-0.1974152773618698
			],
			"type":"VEC3"
		},
		{
			"bufferView":88,
			"componentType":5126,
			"count":72,
			"type":"VEC3"
		},
		{
			"bufferView":89,
			"componentType":5126,
			"count":72,
			"type":"VEC2"
		},
		{
			"bufferView":90,
			"componentType":5126,
			"count":36,
			"max":[
				0.10285337269306183,
				0.0032079950906336308,
				0.11789581179618835
			],
			"min":[
				-0.10285337269306183,
				-0.15037228167057037,
				-0.11789575964212418
			],
			"type":"VEC3"
		},
		{
			"bufferView":91,
			"componentType":5126,
			"count":36,
			"type":"VEC3"
		},
		{
			"bufferView":92,
			"componentType":5126,
			"count":36,
			"type":"VEC2"
		},
		{
			"bufferView":93,
			"componentType":5126,
			"count":36,
			"max":[
				0.07671055942773819,
				3.6717093365723485e-08,
				0.08757150918245316
			],
			"min":[
				-0.07608696073293686,
				-0.23980946838855743,
				-0.08721143752336502
			],
			"type":"VEC3"
		},
		{
			"bufferView":94,
			"componentType":5126,
			"count":36,
			"type":"VEC3"
		},
		{
			"bufferView":95,
			"componentType":5126,
			"count":36,
			"type":"VEC2"
		},
		{
			"bufferView":96,
			"componentType":5126,
			"count":36,
			"max":[
				0.09444364905357361,
				4.588546076433886e-08,
				0.108836330473423
			],
			"min":[
				-0.09444364905357361,
				-0.3849150836467743,
				-0.10883628576993942
			],
			"type":"VEC3"
		},
		{
			"bufferView":97,
			"componentType":5126,
			"count":36,
			"type":"VEC3"
		},
		{
			"bufferView":98,
			"componentType":5126,
			"count":36,
			"type":"VEC2"
		},
		{
			"bufferView":99,
			"componentType":5126,
			"count":36,
			"max":[
				0.10285337269306183,
				0.0032079964876174927,
				0.11789575219154358
			],
			"min":[
				-0.10285337269306183,
				-0.15037226676940918,
				-0.11789581924676895
			],
			"type":"VEC3"
		},
		{
			"bufferView":100,
			"componentType":5126,
			"count":36,
			"type":"VEC3"
		},
		{
			"bufferView":101,
			"componentType":5126,
			"count":36,
			"type":"VEC2"
		},
		{
			"bufferView":102,
			"componentType":5123,
			"count":60,
			"type":"SCALAR"
		},
		{
			"bufferView":103,
			"componentType":5126,
			"count":36,
			"max":[
				0.07671055942773819,
				4.470348358154297e-08,
				0.08721143752336502
			],
			"min":[
				-0.07608696073293686,
				-0.23980945348739624,
				-0.08757150918245316
			],
			"type":"VEC3"
		},
		{
			"bufferView":104,
			"componentType":5126,
			"count":36,
			"type":"VEC3"
		},
		{
			"bufferView":105,
			"componentType":5126,
			"count":36,
			"type":"VEC2"
		},
		{
			"bufferView":106,
			"componentType":5126,
			"count":36,
			"max":[
				0.09444364905357361,
				2.9802322387695312e-08,
				0.10883628576993942
			],
			"min":[
				-0.09444364905357361,
				-0.3849151134490967,
				-0.108836330473423
			],
			"type":"VEC3"
		},
		{
			"bufferView":107,
			"componentType":5126,
			"count":36,
			"type":"VEC3"
		},
		{
			"bufferView":108,
			"componentType":5126,
			"count":36,
			"type":"VEC2"
		},
		{
			"bufferView":109,
			"componentType":5126,
			"count":36,
			"max":[
				0.21552158892154694,
				0.07478444278240204,
				0.24886290729045868
			],
			"min":[
				-0.21552158892154694,
				-0.07478444278240204,
				-0.24886290729045868
			],
			"type":"VEC3"
		},
		{
			"bufferView":110,
			"componentType":5126,
			"count":36,
			"type":"VEC3"
		},
		{
			"bufferView":111,
			"componentType":5126,
			"count":36,
			"type":"VEC2"
		},
		{
			"bufferView":112,
			"componentType":5126,
			"count":36,
			"max":[
				0.18531563878059387,
				0.14845332503318787,
				0.21398407220840454
			],
			"min":[
				-0.18531563878059387,
				-0.14845332503318787,
				-0.21398407220840454
			],
			"type":"VEC3"
		},
		{
			"bufferView":113,
			"componentType":5126,
			"count":36,
			"type":"VEC3"
		},
		{
			"bufferView":114,
			"componentType":5126,
			"count":36,
			"type":"VEC2"
		},
		{
			"bufferView":115,
			"componentType":5126,
			"count":36,
			"max":[
				0.16630670428276062,
				0.24426718056201935,
				0.19203443825244904
			],
			"min":[
				-0.16630670428276062,
				-0.24426718056201935,
				-0.19203443825244904
			],
			"type":"VEC3"
		},
		{
			"bufferView":116,
			"componentType":5126,
			"count":36,
			"type":"VEC3"
		},
		{
			"bufferView":117,
			"componentType":5126,
			"count":36,
			"type":"VEC2"
		}
	],
	"bufferViews":[
		{
			"buffer":0,
			"byteLength":432,
			"byteOffset":0,
			"target":34962
		},
		{
			"buffer":0,
			"byteLength":432,
			"byteOffset":432,
			"target":34962
		},
		{
			"buffer":0,
			"byteLength":288,
			"byteOffset":864,
			"target":34962
		},
		{
			"buffer":0,
			"byteLength":120,
			"byteOffset":1152,
			"target":34963
		},
		{
			"buffer":0,
			"byteLength":432,
			"byteOffset":1272,
			"target":34962
		},
		{
			"buffer":0,
			"byteLength":432,
			"byteOffset":1704,
			"target":34962
		},
		{
			"buffer":0,
			"byteLength":288,
			"byteOffset":2136,
			"target":34962
		},
		{
			"buffer":0,
			"byteLength":432,
			"byteOffset":2424,
			"target":34962
		},
		{
			"buffer":0,
			"byteLength":432,
			"byteOffset":2856,
			"target":34962
		},
		{
			"buffer":0,
			"byteLength":288,
			"byteOffset":3288,
			"target":34962
		},
		{
			"buffer":0,
			"byteLength":432,
			"byteOffset":3576,
			"target":34962
		},
		{
			"buffer":0,
			"byteLength":432,
			"byteOffset":4008,
			"target":34962
		},
		{
			"buffer":0,
			"byteLength":288,
			"byteOffset":4440,
			"target":34962
		},
		{
			"buffer":0,
			"byteLength":120,
			"byteOffset":4728,
			"target":34963
		},
		{
			"buffer":0,
			"byteLength":432,
			"byteOffset":4848,
			"target":34962
		},
		{
			"buffer":0,
			"byteLength":432,
			"byteOffset":5280,
			"target":34962
		},
		{
			"buffer":0,
			"byteLength":288,
			"byteOffset":5712,
			"target":34962
		},
		{
			"buffer":0,
			"byteLength":432,
			"byteOffset":6000,
			"target":34962
		},
		{
			"buffer":0,
			"byteLength":432,
			"byteOffset":6432,
			"target":34962
		},
		{
			"buffer":0,
			"byteLength":288,
			"byteOffset":6864,
			"target":34962
		},
		{
			"buffer":0,
			"byteLength":432,
			"byteOffset":7152,
			"target":34962
		},
		{
			"buffer":0,
			"byteLength":432,
			"byteOffset":7584,
			"target":34962
		},
		{
			"buffer":0,
			"byteLength":288,
			"byteOffset":8016,
			"target":34962
		},
		{
			"buffer":0,
			"byteLength":120,
			"byteOffset":8304,
			"target":34963
		},
		{
			"buffer":0,
			"byteLength":432,
			"byteOffset":8424,
			"target":34962
		},
		{
			"buffer":0,
			"byteLength":432,
			"byteOffset":8856,
			"target":34962
		},
		{
			"buffer":0,
			"byteLength":288,
			"byteOffset":9288,
			"target":34962
		},
		{
			"buffer":0,
			"byteLength":432,
			"byteOffset":9576,
			"target":34962
		},
		{
			"buffer":0,
			"byteLength":432,
			"byteOffset":10008,
			"target":34962
		},
		{
			"buffer":0,
			"byteLength":288,
			"byteOffset":10440,
			"target":34962
		},
		{
			"buffer":0,
			"byteLength":432,
			"byteOffset":10728,
			"target":34962
		},
		{
			"buffer":0,
			"byteLength":432,
			"byteOffset":11160,
			"target":34962
		},
		{
			"buffer":0,
			"byteLength":288,
			"byteOffset":11592,
			"target":34962
		},
		{
			"buffer":0,
			"byteLength":432,
			"byteOffset":11880,
			"target":34962
		},
		{
			"buffer":0,
			"byteLength":432,
			"byteOffset":12312,
			"target":34962
		},
		{
			"buffer":0,
			"byteLength":288,
			"byteOffset":12744,
			"target":34962
		},
		{
			"buffer":0,
			"byteLength":120,
			"byteOffset":13032,
			"target":34963
		},
		{
			"buffer":0,
			"byteLength":432,
			"byteOffset":13152,
			"target":34962
		},
		{
			"buffer":0,
			"byteLength":432,
			"byteOffset":13584,
			"target":34962
		},
		{
			"buffer":0,
			"byteLength":288,
			"byteOffset":14016,
			"target":34962
		},
		{
			"buffer":0,
			"byteLength":432,
			"byteOffset":14304,
			"target":34962
		},
		{
			"buffer":0,
			"byteLength":432,
			"byteOffset":14736,
			"target":34962
		},
		{
			"buffer":0,
			"byteLength":288,
			"byteOffset":15168,
			"target":34962
		},
		{
			"buffer":0,
			"byteLength":432,
			"byteOffset":15456,
			"target":34962
		},
		{
			"buffer":0,
			"byteLength":432,
			"byteOffset":15888,
			"target":34962
		},
		{
			"buffer":0,
			"byteLength":288,
			"byteOffset":16320,
			"target":34962
		},
		{
			"buffer":0,
			"byteLength":432,
			"byteOffset":16608,
			"target":34962
		},
		{
			"buffer":0,
			"byteLength":432,
			"byteOffset":17040,
			"target":34962
		},
		{
			"buffer":0,
			"byteLength":288,
			"byteOffset":17472,
			"target":34962
		},
		{
			"buffer":0,
			"byteLength":432,
			"byteOffset":17760,
			"target":34962
		},
		{
			"buffer":0,
			"byteLength":432,
			"byteOffset":18192,
			"target":34962
		},
		{
			"buffer":0,
			"byteLength":288,
			"byteOffset":18624,
			"target":34962
		},
		{
			"buffer":0,
			"byteLength":120,
			"byteOffset":18912,
			"target":34963
		},
		{
			"buffer":0,
			"byteLength":432,
			"byteOffset":19032,
			"target":34962
		},
		{
			"buffer":0,
			"byteLength":432,
			"byteOffset":19464,
			"target":34962
		},
		{
			"buffer":0,
			"byteLength":288,
			"byteOffset":19896,
			"target":34962
		},
		{
			"buffer":0,
			"byteLength":432,
			"byteOffset":20184,
			"target":34962
		},
		{
			"buffer":0,
			"byteLength":432,
			"byteOffset":20616,
			"target":34962
		},
		{
			"buffer":0,
			"byteLength":288,
			"byteOffset":21048,
			"target":34962
		},
		{
			"buffer":0,
			"byteLength":432,
			"byteOffset":21336,
			"target":34962
		},
		{
			"buffer":0,
			"byteLength":432,
			"byteOffset":21768,
			"target":34962
		},
		{
			"buffer":0,
			"byteLength":288,
			"byteOffset":22200,
			"target":34962
		},
		{
			"buffer":0,
			"byteLength":432,
			"byteOffset":22488,
			"target":34962
		},
		{
			"buffer":0,
			"byteLength":432,
			"byteOffset":22920,
			"target":34962
		},
		{
			"buffer":0,
			"byteLength":288,
			"byteOffset":23352,
			"target":34962
		},
		{
			"buffer":0,
			"byteLength":432,
			"byteOffset":23640,
			"target":34962
		},
		{
			"buffer":0,
			"byteLength":432,
			"byteOffset":24072,
			"target":34962
		},
		{
			"buffer":0,
			"byteLength":288,
			"byteOffset":24504,
			"target":34962
		},
		{
			"buffer":0,
			"byteLength":432,
			"byteOffset":24792,
			"target":34962
		},
		{
			"buffer":0,
			"byteLength":432,
			"byteOffset":25224,
			"target":34962
		},
		{
			"buffer":0,
			"byteLength":288,
			"byteOffset":25656,
			"target":34962
		},
		{
			"buffer":0,
			"byteLength":432,
			"byteOffset":25944,
			"target":34962
		},
		{
			"buffer":0,
			"byteLength":432,
			"byteOffset":26376,
			"target":34962
		},
		{
			"buffer":0,
			"byteLength":288,
			"byteOffset":26808,
			"target":34962
		},
		{
			"buffer":0,
			"byteLength":432,
			"byteOffset":27096,
			"target":34962
		},
		{
			"buffer":0,
			"byteLength":432,
			"byteOffset":27528,
			"target":34962
		},
		{
			"buffer":0,
			"byteLength":288,
			"byteOffset":27960,
			"target":34962
		},
		{
			"buffer":0,
			"byteLength":432,
			"byteOffset":28248,
			"target":34962
		},
		{
			"buffer":0,
			"byteLength":432,
			"byteOffset":28680,
			"target":34962
		},
		{
			"buffer":0,
			"byteLength":288,
			"byteOffset":29112,
			"target":34962
		},
		{
			"buffer":0,
			"byteLength":432,
			"byteOffset":29400,
			"target":34962
		},
		{
			"buffer":0,
			"byteLength":432,
			"byteOffset":29832,
			"target":34962
		},
		{
			"buffer":0,
			"byteLength":288,
			"byteOffset":30264,
			"target":34962
		},
		{
			"buffer":0,
			"byteLength":864,
			"byteOffset":30552,
			"target":34962
		},
		{
			"buffer":0,
			"byteLength":864,
			"byteOffset":31416,
			"target":34962
		},
		{
			"buffer":0,
			"byteLength":576,
			"byteOffset":32280,
			"target":34962
		},
		{
			"buffer":0,
			"byteLength":240,
			"byteOffset":32856,
			"target":34963
		},
		{
			"buffer":0,
			"byteLength":864,
			"byteOffset":33096,
			"target":34962
		},
		{
			"buffer":0,
			"byteLength":864,
			"byteOffset":33960,
			"target":34962
		},
		{
			"buffer":0,
			"byteLength":576,
			"byteOffset":34824,
			"target":34962
		},
		{
			"buffer":0,
			"byteLength":432,
			"byteOffset":35400,
			"target":34962
		},
		{
			"buffer":0,
			"byteLength":432,
			"byteOffset":35832,
			"target":34962
		},
		{
			"buffer":0,
			"byteLength":288,
			"byteOffset":36264,
			"target":34962
		},
		{
			"buffer":0,
			"byteLength":432,
			"byteOffset":36552,
			"target":34962
		},
		{
			"buffer":0,
			"byteLength":432,
			"byteOffset":36984,
			"target":34962
		},
		{
			"buffer":0,
			"byteLength":288,
			"byteOffset":37416,
			"target":34962
		},
		{
			"buffer":0,
			"byteLength":432,
			"byteOffset":37704,
			"target":34962
		},
		{
			"buffer":0,
			"byteLength":432,
			"byteOffset":38136,
			"target":34962
		},
		{
			"buffer":0,
			"byteLength":288,
			"byteOffset":38568,
			"target":34962
		},
		{
			"buffer":0,
			"byteLength":432,
			"byteOffset":38856,
			"target":34962
		},
		{
			"buffer":0,
			"byteLength":432,
			"byteOffset":39288,
			"target":34962
		},
		{
			"buffer":0,
			"byteLength":288,
			"byteOffset":39720,
			"target":34962
		},
		{
			"buffer":0,
			"byteLength":120,
			"byteOffset":40008,
			"target":34963
		},
		{
			"buffer":0,
			"byteLength":432,
			"byteOffset":40128,
			"target":34962
		},
		{
			"buffer":0,
			"byteLength":432,
			"byteOffset":40560,
			"target":34962
		},
		{
			"buffer":0,
			"byteLength":288,
			"byteOffset":40992,
			"target":34962
		},
		{
			"buffer":0,
			"byteLength":432,
			"byteOffset":41280,
			"target":34962
		},
		{
			"buffer":0,
			"byteLength":432,
			"byteOffset":41712,
			"target":34962
		},
		{
			"buffer":0,
			"byteLength":288,
			"byteOffset":42144,
			"target":34962
		},
		{
			"buffer":0,
			"byteLength":432,
			"byteOffset":42432,
			"target":34962
		},
		{
			"buffer":0,
			"byteLength":432,
			"byteOffset":42864,
			"target":34962
		},
		{
			"buffer":0,
			"byteLength":288,
			"byteOffset":43296,
			"target":34962
		},
		{
			"buffer":0,
			"byteLength":432,
			"byteOffset":43584,
			"target":34962
		},
		{
			"buffer":0,
			"byteLength":432,
			"byteOffset":44016,
			"target":34962
		},
		{
			"buffer":0,
			"byteLength":288,
			"byteOffset":44448,
			"target":34962
		},
		{
			"buffer":0,
			"byteLength":432,
			"byteOffset":44736,
			"target":34962
		},
		{
			"buffer":0,
			"byteLength":432,
			"byteOffset":45168,
			"target":34962
		},
		{
			"buffer":0,
			"byteLength":288,
			"byteOffset":45600,
			"target":34962
		}
	],
	"buffers":[
		{
			"byteLength":45888,
			"uri":"Farmer.bin"
		}
	]
}
