{
	"asset":{
		"generator":"Khronos glTF Blender I/O v4.5.48",
		"version":"2.0"
	},
	"scene":0,
	"scenes":[
		{
			"name":"Scene",
			"nodes":[
				3,
				4,
				14
			]
		}
	],
	"nodes":[
		{
			"mesh":0,
			"name":"Beak",
			"translation":[
				0,
				0.31514883041381836,
				-0.4075658619403839
			]
		},
		{
			"mesh":1,
			"name":"Eye.Left",
			"translation":[
				-0.26851949095726013,
				0.6789920330047607,
				-0.4298526644706726
			]
		},
		{
			"mesh":2,
			"name":"Eye.Right",
			"translation":[
				0.26851943135261536,
				0.6789920330047607,
				-0.4298526346683502
			]
		},
		{
			"children":[
				0,
				1,
				2
			],
			"mesh":3,
			"name":"Head",
			"translation":[
				0,
				3.1571218967437744,
				0
			]
		},
		{
			"mesh":4,
			"name":"Plane",
			"scale":[
				12.790339469909668,
				12.790339469909668,
				12.790339469909668
			],
			"translation":[
				0,
				-0.41773033142089844,
				0
			]
		},
		{
			"mesh":5,
			"name":"Foot.Left",
			"translation":[
				-0.5008215308189392,
				-1.6751368045806885,
				0.25103458762168884
			]
		},
		{
			"mesh":6,
			"name":"Foot.Right",
			"translation":[
				0.5008215308189392,
				-1.6751368045806885,
				0.25103452801704407
			]
		},
		{
			"name":"Hand.AP.Left",
			"rotation":[
				-0.06290210783481598,
				0.06290209293365479,
				-0.7043033838272095,
				0.704303503036499
			],
			"translation":[
				-0.21417617797851562,
				-1.76386296749115,
				0
			]
		},
		{
			"children":[
				7
			],
			"mesh":7,
			"name":"Wing.Lower.Left",
			"translation":[
				-0.2470085620880127,
				-0.5469543933868408,
				0.0318150520324707
			]
		},
		{
			"children":[
				8
			],
			"mesh":8,
			"name":"Wing.Upper.Left",
			"translation":[
				-0.5394790172576904,
				1.1221898794174194,
				0.1331707388162613
			]
		},
		{
			"name":"Hand.AP.Right",
			"rotation":[
				0.07108347117900848,
				-0.07108346372842789,
				-0.7035247683525085,
				0.7035248875617981
			],
			"translation":[
				0.2141759991645813,
				-1.7638628482818604,
				0
			]
		},
		{
			"children":[
				10
			],
			"mesh":9,
			"name":"Wing.Lower.Left.001",
			"translation":[
				0.24700844287872314,
				-0.546954870223999,
				0.031815096735954285
			]
		},
		{
			"children":[
				11
			],
			"mesh":10,
			"name":"Wing.Upper.Right",
			"translation":[
				0.5394793152809143,
				1.1221898794174194,
				0.13317067921161652
			]
		},
		{
			"children":[
				5,
				6,
				9,
				12
			],
			"mesh":11,
			"name":"Torso"
		},
		{
			"children":[
				13
			],
			"name":"ROOT",
			"translation":[
				0,
				1.6102806329727173,
				0
			]
		}
	],
	"materials":[
		{
			"doubleSided":true,
			"name":"Material.005",
			"pbrMetallicRoughness":{
				"baseColorTexture":{
					"index":0
				},
				"metallicFactor":0,
				"roughnessFactor":0.5
			}
		},
		{
			"doubleSided":true,
			"name":"Material.006",
			"pbrMetallicRoughness":{
				"baseColorFactor":[
					0.800000011920929,
					0.800000011920929,
					0.800000011920929,
					1
				],
				"metallicFactor":0,
				"roughnessFactor":0.15079365670681
			}
		}
	],
	"meshes":[
		{
			"name":"Cylinder.004",
			"primitives":[
				{
					"attributes":{
						"POSITION":0,
						"NORMAL":1,
						"TEXCOORD_0":2
					},
					"indices":3,
					"material":0
				}
			]
		},
		{
			"name":"Cylinder.005",
			"primitives":[
				{
					"attributes":{
						"POSITION":4,
						"NORMAL":5,
						"TEXCOORD_0":6
					},
					"indices":3,
					"material":0
				}
			]
		},
		{
			"name":"Cylinder.010",
			"primitives":[
				{
					"attributes":{
						"POSITION":7,
						"NORMAL":8,
						"TEXCOORD_0":9
					},
					"indices":10,
					"material":0
				}
			]
		},
		{
			"name":"Cylinder.008",
			"primitives":[
				{
					"attributes":{
						"POSITION":11,
						"NORMAL":12,
						"TEXCOORD_0":13
					},
					"indices":14,
					"material":0
				}
			]
		},
		{
			"name":"Plane",
			"primitives":[
				{
					"attributes":{
						"POSITION":15,
						"NORMAL":16,
						"TEXCOORD_0":17
					},
					"indices":18,
					"material":1
				}
			]
		},
		{
			"name":"Cylinder.001",
			"primitives":[
				{
					"attributes":{
						"POSITION":19,
						"NORMAL":20,
						"TEXCOORD_0":21
					},
					"indices":3,
					"material":0
				}
			]
		},
		{
			"name":"Cylinder.006",
			"primitives":[
				{
					"attributes":{
						"POSITION":22,
						"NORMAL":23,
						"TEXCOORD_0":24
					},
					"indices":10,
					"material":0
				}
			]
		},
		{
			"name":"Cylinder.002",
			"primitives":[
				{
					"attributes":{
						"POSITION":25,
						"NORMAL":26,
						"TEXCOORD_0":27
					},
					"indices":28,
					"material":0
				}
			]
		},
		{
			"name":"Cylinder.007",
			"primitives":[
				{
					"attributes":{
						"POSITION":29,
						"NORMAL":30,
						"TEXCOORD_0":31
					},
					"indices":32,
					"material":0
				}
			]
		},
		{
			"name":"Cylinder.009",
			"primitives":[
				{
					"attributes":{
						"POSITION":33,
						"NORMAL":34,
						"TEXCOORD_0":35
					},
					"indices":36,
					"material":0
				}
			]
		},
		{
			"name":"Cylinder.003",
			"primitives":[
				{
					"attributes":{
						"POSITION":37,
						"NORMAL":38,
						"TEXCOORD_0":39
					},
					"indices":40,
					"material":0
				}
			]
		},
		{
			"name":"Cylinder",
			"primitives":[
				{
					"attributes":{
						"POSITION":41,
						"NORMAL":42,
						"TEXCOORD_0":43
					},
					"indices":44,
					"material":0
				}
			]
		}
	],
	"textures":[
		{
			"sampler":0,
			"source":0
		}
	],
	"images":[
		{
			"mimeType":"image/png",
			"name":"Cylinder Base Color",
			"uri":"Cylinder%20Base%20Color.png"
		}
	],
	"accessors":[
		{
			"bufferView":0,
			"componentType":5126,
			"count":36,
			"max":[
				0.24752600491046906,
				0.2858183979988098,
				5.927935831095965e-08
			],
			"min":[
				-0.24752600491046906,
				-0.2858183979988098,
				-0.6547989845275879
			],
			"type":"VEC3"
		},
		{
			"bufferView":1,
			"componentType":5126,
			"count":36,
			"type":"VEC3"
		},
		{
			"bufferView":2,
			"componentType":5126,
			"count":36,
			"type":"VEC2"
		},
		{
			"bufferView":3,
			"componentType":5123,
			"count":60,
			"type":"SCALAR"
		},
		{
			"bufferView":4,
			"componentType":5126,
			"count":36,
			"max":[
				0.15175634622573853,
				0.1752331256866455,
				0.13480867445468903
			],
			"min":[
				-0.15175634622573853,
				-0.1752331256866455,
				-0.13480867445468903
			],
			"type":"VEC3"
		},
		{
			"bufferView":5,
			"componentType":5126,
			"count":36,
			"type":"VEC3"
		},
		{
			"bufferView":6,
			"componentType":5126,
			"count":36,
			"type":"VEC2"
		},
		{
			"bufferView":7,
			"componentType":5126,
			"count":36,
			"max":[
				0.15175636112689972,
				0.1752331405878067,
				0.13480867445468903
			],
			"min":[
				-0.15175636112689972,
				-0.1752331405878067,
				-0.13480867445468903
			],
			"type":"VEC3"
		},
		{
			"bufferView":8,
			"componentType":5126,
			"count":36,
			"type":"VEC3"
		},
		{
			"bufferView":9,
			"componentType":5126,
			"count":36,
			"type":"VEC2"
		},
		{
			"bufferView":10,
			"componentType":5123,
			"count":60,
			"type":"SCALAR"
		},
		{
			"bufferView":11,
			"componentType":5126,
			"count":108,
			"max":[
				0.6631935238838196,
				0.9301245212554932,
				0.765789806842804
			],
			"min":[
				-0.6631935238838196,
				0,
				-0.765789806842804
			],
			"type":"VEC3"
		},
		{
			"bufferView":12,
			"componentType":5126,
			"count":108,
			"type":"VEC3"
		},
		{
			"bufferView":13,
			"componentType":5126,
			"count":108,
			"type":"VEC2"
		},
		{
			"bufferView":14,
			"componentType":5123,
			"count":168,
			"type":"SCALAR"
		},
		{
			"bufferView":15,
			"componentType":5126,
			"count":4,
			"max":[
				1,
				0,
				1
			],
			"min":[
				-1,
				0,
				-1
			],
			"type":"VEC3"
		},
		{
			"bufferView":16,
			"componentType":5126,
			"count":4,
			"type":"VEC3"
		},
		{
			"bufferView":17,
			"componentType":5126,
			"count":4,
			"type":"VEC2"
		},
		{
			"bufferView":18,
			"componentType":5123,
			"count":6,
			"type":"SCALAR"
		},
		{
			"bufferView":19,
			"componentType":5126,
			"count":36,
			"max":[
				0.4615035951137543,
				0,
				-9.365251545052694e-16
			],
			"min":[
				-0.46150341629981995,
				-0.3406243920326233,
				-1.0657966136932373
			],
			"type":"VEC3"
		},
		{
			"bufferView":20,
			"componentType":5126,
			"count":36,
			"type":"VEC3"
		},
		{
			"bufferView":21,
			"componentType":5126,
			"count":36,
			"type":"VEC2"
		},
		{
			"bufferView":22,
			"componentType":5126,
			"count":36,
			"max":[
				0.46150362491607666,
				0,
				0
			],
			"min":[
				-0.46150344610214233,
				-0.3406243920326233,
				-1.0657966136932373
			],
			"type":"VEC3"
		},
		{
			"bufferView":23,
			"componentType":5126,
			"count":36,
			"type":"VEC3"
		},
		{
			"bufferView":24,
			"componentType":5126,
			"count":36,
			"type":"VEC2"
		},
		{
			"bufferView":25,
			"componentType":5126,
			"count":36,
			"max":[
				0.26976248621940613,
				0.03275572136044502,
				1.0408893823623657
			],
			"min":[
				-0.483938604593277,
				-1.7966188192367554,
				-1.0408893823623657
			],
			"type":"VEC3"
		},
		{
			"bufferView":26,
			"componentType":5126,
			"count":36,
			"type":"VEC3"
		},
		{
			"bufferView":27,
			"componentType":5126,
			"count":36,
			"type":"VEC2"
		},
		{
			"bufferView":28,
			"componentType":5123,
			"count":60,
			"type":"SCALAR"
		},
		{
			"bufferView":29,
			"componentType":5126,
			"count":36,
			"max":[
				0.09599848091602325,
				0.3337298333644867,
				0.5671588182449341
			],
			"min":[
				-0.5128780007362366,
				-0.8751370906829834,
				-0.4997009336948395
			],
			"type":"VEC3"
		},
		{
			"bufferView":30,
			"componentType":5126,
			"count":36,
			"type":"VEC3"
		},
		{
			"bufferView":31,
			"componentType":5126,
			"count":36,
			"type":"VEC2"
		},
		{
			"bufferView":32,
			"componentType":5123,
			"count":60,
			"type":"SCALAR"
		},
		{
			"bufferView":33,
			"componentType":5126,
			"count":36,
			"max":[
				0.4839387834072113,
				0.03275569900870323,
				1.0408893823623657
			],
			"min":[
				-0.2697628438472748,
				-1.7966185808181763,
				-1.0408893823623657
			],
			"type":"VEC3"
		},
		{
			"bufferView":34,
			"componentType":5126,
			"count":36,
			"type":"VEC3"
		},
		{
			"bufferView":35,
			"componentType":5126,
			"count":36,
			"type":"VEC2"
		},
		{
			"bufferView":36,
			"componentType":5123,
			"count":60,
			"type":"SCALAR"
		},
		{
			"bufferView":37,
			"componentType":5126,
			"count":36,
			"max":[
				0.5128779411315918,
				0.3337298631668091,
				0.5671588182449341
			],
			"min":[
				-0.0959986001253128,
				-0.8751370906829834,
				-0.49970102310180664
			],
			"type":"VEC3"
		},
		{
			"bufferView":38,
			"componentType":5126,
			"count":36,
			"type":"VEC3"
		},
		{
			"bufferView":39,
			"componentType":5126,
			"count":36,
			"type":"VEC2"
		},
		{
			"bufferView":40,
			"componentType":5123,
			"count":60,
			"type":"SCALAR"
		},
		{
			"bufferView":41,
			"componentType":5126,
			"count":84,
			"max":[
				0.8280713558197021,
				1.5471214056015015,
				0.956174373626709
			],
			"min":[
				-0.8280713558197021,
				-1.6405383348464966,
				-0.956174373626709
			],
			"type":"VEC3"
		},
		{
			"bufferView":42,
			"componentType":5126,
			"count":84,
			"type":"VEC3"
		},
		{
			"bufferView":43,
			"componentType":5126,
			"count":84,
			"type":"VEC2"
		},
		{
			"bufferView":44,
			"componentType":5123,
			"count":132,
			"type":"SCALAR"
		}
	],
	"bufferViews":[
		{
			"buffer":0,
			"byteLength":432,
			"byteOffset":0,
			"target":34962
		},
		{
			"buffer":0,
			"byteLength":432,
			"byteOffset":432,
			"target":34962
		},
		{
			"buffer":0,
			"byteLength":288,
			"byteOffset":864,
			"target":34962
		},
		{
			"buffer":0,
			"byteLength":120,
			"byteOffset":1152,
			"target":34963
		},
		{
			"buffer":0,
			"byteLength":432,
			"byteOffset":1272,
			"target":34962
		},
		{
			"buffer":0,
			"byteLength":432,
			"byteOffset":1704,
			"target":34962
		},
		{
			"buffer":0,
			"byteLength":288,
			"byteOffset":2136,
			"target":34962
		},
		{
			"buffer":0,
			"byteLength":432,
			"byteOffset":2424,
			"target":34962
		},
		{
			"buffer":0,
			"byteLength":432,
			"byteOffset":2856,
			"target":34962
		},
		{
			"buffer":0,
			"byteLength":288,
			"byteOffset":3288,
			"target":34962
		},
		{
			"buffer":0,
			"byteLength":120,
			"byteOffset":3576,
			"target":34963
		},
		{
			"buffer":0,
			"byteLength":1296,
			"byteOffset":3696,
			"target":34962
		},
		{
			"buffer":0,
			"byteLength":1296,
			"byteOffset":4992,
			"target":34962
		},
		{
			"buffer":0,
			"byteLength":864,
			"byteOffset":6288,
			"target":34962
		},
		{
			"buffer":0,
			"byteLength":336,
			"byteOffset":7152,
			"target":34963
		},
		{
			"buffer":0,
			"byteLength":48,
			"byteOffset":7488,
			"target":34962
		},
		{
			"buffer":0,
			"byteLength":48,
			"byteOffset":7536,
			"target":34962
		},
		{
			"buffer":0,
			"byteLength":32,
			"byteOffset":7584,
			"target":34962
		},
		{
			"buffer":0,
			"byteLength":12,
			"byteOffset":7616,
			"target":34963
		},
		{
			"buffer":0,
			"byteLength":432,
			"byteOffset":7628,
			"target":34962
		},
		{
			"buffer":0,
			"byteLength":432,
			"byteOffset":8060,
			"target":34962
		},
		{
			"buffer":0,
			"byteLength":288,
			"byteOffset":8492,
			"target":34962
		},
		{
			"buffer":0,
			"byteLength":432,
			"byteOffset":8780,
			"target":34962
		},
		{
			"buffer":0,
			"byteLength":432,
			"byteOffset":9212,
			"target":34962
		},
		{
			"buffer":0,
			"byteLength":288,
			"byteOffset":9644,
			"target":34962
		},
		{
			"buffer":0,
			"byteLength":432,
			"byteOffset":9932,
			"target":34962
		},
		{
			"buffer":0,
			"byteLength":432,
			"byteOffset":10364,
			"target":34962
		},
		{
			"buffer":0,
			"byteLength":288,
			"byteOffset":10796,
			"target":34962
		},
		{
			"buffer":0,
			"byteLength":120,
			"byteOffset":11084,
			"target":34963
		},
		{
			"buffer":0,
			"byteLength":432,
			"byteOffset":11204,
			"target":34962
		},
		{
			"buffer":0,
			"byteLength":432,
			"byteOffset":11636,
			"target":34962
		},
		{
			"buffer":0,
			"byteLength":288,
			"byteOffset":12068,
			"target":34962
		},
		{
			"buffer":0,
			"byteLength":120,
			"byteOffset":12356,
			"target":34963
		},
		{
			"buffer":0,
			"byteLength":432,
			"byteOffset":12476,
			"target":34962
		},
		{
			"buffer":0,
			"byteLength":432,
			"byteOffset":12908,
			"target":34962
		},
		{
			"buffer":0,
			"byteLength":288,
			"byteOffset":13340,
			"target":34962
		},
		{
			"buffer":0,
			"byteLength":120,
			"byteOffset":13628,
			"target":34963
		},
		{
			"buffer":0,
			"byteLength":432,
			"byteOffset":13748,
			"target":34962
		},
		{
			"buffer":0,
			"byteLength":432,
			"byteOffset":14180,
			"target":34962
		},
		{
			"buffer":0,
			"byteLength":288,
			"byteOffset":14612,
			"target":34962
		},
		{
			"buffer":0,
			"byteLength":120,
			"byteOffset":14900,
			"target":34963
		},
		{
			"buffer":0,
			"byteLength":1008,
			"byteOffset":15020,
			"target":34962
		},
		{
			"buffer":0,
			"byteLength":1008,
			"byteOffset":16028,
			"target":34962
		},
		{
			"buffer":0,
			"byteLength":672,
			"byteOffset":17036,
			"target":34962
		},
		{
			"buffer":0,
			"byteLength":264,
			"byteOffset":17708,
			"target":34963
		}
	],
	"samplers":[
		{
			"magFilter":9729,
			"minFilter":9987
		}
	],
	"buffers":[
		{
			"byteLength":17972,
			"uri":"Norbert1.bin"
		}
	]
}
