{
	"asset":{
		"generator":"Khronos glTF Blender I/O v4.5.48",
		"version":"2.0"
	},
	"scene":0,
	"scenes":[
		{
			"name":"Scene",
			"nodes":[
				28,
				29
			]
		}
	],
	"nodes":[
		{
			"mesh":0,
			"name":"Cylinder.004",
			"rotation":[
				0.6084086894989014,
				0.6084086298942566,
				0.36033162474632263,
				0.3603316843509674
			],
			"scale":[
				0.9221829771995544,
				0.6385713815689087,
				0.6385713815689087
			],
			"translation":[
				0.4369605481624603,
				0,
				0.6344137191772461
			]
		},
		{
			"mesh":1,
			"name":"Cylinder.005",
			"scale":[
				0.483224481344223,
				0.26583728194236755,
				0.483224481344223
			],
			"translation":[
				-0.1749364733695984,
				-0.8671122193336487,
				0.2784433364868164
			]
		},
		{
			"mesh":2,
			"name":"Cylinder.043",
			"scale":[
				0.483224481344223,
				0.26583728194236755,
				0.483224481344223
			],
			"translation":[
				-0.17493638396263123,
				0.8671121001243591,
				0.2784433364868164
			]
		},
		{
			"children":[
				0,
				1,
				2
			],
			"mesh":3,
			"name":"Cylinder.003",
			"rotation":[
				-0.12700921297073364,
				-0.2735748887062073,
				-0.6235769987106323,
				0.7212331295013428
			],
			"scale":[
				0.9172695875167847,
				0.878352701663971,
				1.1427297592163086
			],
			"translation":[
				3.814697265625e-06,
				2.304586410522461,
				-0.05035319924354553
			]
		},
		{
			"children":[
				3
			],
			"mesh":4,
			"name":"Cylinder.002",
			"rotation":[
				-0.26733019948005676,
				0,
				0,
				0.9636049866676331
			],
			"scale":[
				0.8731802105903625,
				1.0653977394104004,
				0.7986207604408264
			],
			"translation":[
				0,
				1.773026466369629,
				0.11206305027008057
			]
		},
		{
			"children":[
				4
			],
			"mesh":5,
			"name":"Cylinder.001",
			"rotation":[
				-0.13116224110126495,
				0,
				0,
				0.9913608431816101
			],
			"scale":[
				0.4239104688167572,
				0.6257699728012085,
				0.4198237359523773
			],
			"translation":[
				0,
				0.5088493824005127,
				-0.1394103765487671
			]
		},
		{
			"mesh":6,
			"name":"Cylinder.008",
			"rotation":[
				0.2792486846446991,
				0,
				0,
				0.9602189064025879
			],
			"scale":[
				1.7675423622131348,
				0.2721593379974365,
				1.590043067932129
			],
			"translation":[
				0.21834373474121094,
				-1.2328296899795532,
				0.9582751393318176
			]
		},
		{
			"mesh":7,
			"name":"Cylinder.009",
			"rotation":[
				0.41150784492492676,
				0,
				0,
				0.9114061594009399
			],
			"scale":[
				0.5128311514854431,
				1.0086783170700073,
				0.28187695145606995
			],
			"translation":[
				0,
				-0.6854791045188904,
				-1.21291983127594
			]
		},
		{
			"children":[
				6,
				7
			],
			"mesh":8,
			"name":"Cylinder.007",
			"rotation":[
				-0.5778648257255554,
				0,
				0,
				0.8161325454711914
			],
			"scale":[
				0.4329719841480255,
				1.3965811729431152,
				0.34934520721435547
			],
			"translation":[
				-3.814697265625e-06,
				-1.190479040145874,
				0.932981014251709
			]
		},
		{
			"children":[
				8
			],
			"mesh":9,
			"name":"Cylinder.006",
			"rotation":[
				-0.2778513729572296,
				0,
				0,
				0.960624098777771
			],
			"scale":[
				0.52077317237854,
				0.5582190752029419,
				0.46945956349372864
			],
			"translation":[
				-0.6061534881591797,
				-0.7682713270187378,
				0.18567897379398346
			]
		},
		{
			"mesh":10,
			"name":"Cylinder.021",
			"scale":[
				1.2806323766708374,
				1,
				1.280632495880127
			],
			"translation":[
				0.9858095049858093,
				0.3218974769115448,
				-1.7074719667434692
			]
		},
		{
			"children":[
				10
			],
			"mesh":11,
			"name":"Cylinder.018",
			"translation":[
				0.8506324887275696,
				-0.4117927849292755,
				-1.473334789276123
			]
		},
		{
			"children":[
				11
			],
			"mesh":12,
			"name":"Cylinder.015",
			"rotation":[
				0,
				-0.5,
				0,
				0.8660253882408142
			],
			"translation":[
				1.743213415145874,
				-5.784063432656694e-06,
				0.0027993470430374146
			]
		},
		{
			"children":[
				12
			],
			"mesh":13,
			"name":"Cylinder.013",
			"rotation":[
				-0.5109519958496094,
				-0.4274037182331085,
				0.5966775417327881,
				0.44747093319892883
			],
			"scale":[
				0.8107532858848572,
				0.04930070787668228,
				0.5140873193740845
			],
			"translation":[
				0,
				0.9953176379203796,
				-0.6507284641265869
			]
		},
		{
			"mesh":14,
			"name":"Cylinder.020",
			"scale":[
				1.2806322574615479,
				1,
				1.2806322574615479
			],
			"translation":[
				1.9716182947158813,
				7.62939453125e-06,
				0
			]
		},
		{
			"children":[
				14
			],
			"mesh":15,
			"name":"Cylinder.017",
			"translation":[
				1.7012614011764526,
				-5.7220458984375e-06,
				0
			]
		},
		{
			"children":[
				15
			],
			"mesh":16,
			"name":"Cylinder.014",
			"rotation":[
				-0.6118801832199097,
				-0.40500110387802124,
				0.4469044506549835,
				0.5117160677909851
			],
			"scale":[
				0.8015305399894714,
				0.04930070787668228,
				0.5283515453338623
			],
			"translation":[
				0.7753788828849792,
				1.69775390625,
				-0.7441900372505188
			]
		},
		{
			"mesh":17,
			"name":"Cylinder.022",
			"scale":[
				1.2806326150894165,
				1,
				1.280632495880127
			],
			"translation":[
				-0.9858089685440063,
				-8.652492397231981e-06,
				-1.7074743509292603
			]
		},
		{
			"children":[
				17
			],
			"mesh":18,
			"name":"Cylinder.019",
			"translation":[
				-0.8506302833557129,
				-5.494695415109163e-06,
				-1.4733376502990723
			]
		},
		{
			"children":[
				18
			],
			"mesh":19,
			"name":"Cylinder.016",
			"rotation":[
				-0.22239643335342407,
				0.6243942975997925,
				-0.6902758479118347,
				0.2901565730571747
			],
			"scale":[
				0.6754805445671082,
				0.04930070787668228,
				0.6821529865264893
			],
			"translation":[
				-0.7768233418464661,
				1.6938507556915283,
				-0.7436708211898804
			]
		},
		{
			"children":[
				13,
				16,
				19
			],
			"mesh":20,
			"name":"Cylinder.010",
			"rotation":[
				0,
				-0.14553803205490112,
				0.9893526434898376,
				2.815758364249632e-07
			],
			"scale":[
				0.8803458213806152,
				0.4716860055923462,
				0.8699127435684204
			],
			"translation":[
				0,
				-1.3060945272445679,
				-0.21990510821342468
			]
		},
		{
			"mesh":21,
			"name":"Cylinder.011",
			"rotation":[
				-0.438591867685318,
				-0.2889496386051178,
				-0.6701788902282715,
				0.5244097113609314
			],
			"scale":[
				0.4951142370700836,
				0.0742921233177185,
				0.45345282554626465
			],
			"translation":[
				-0.9374651908874512,
				-0.05814605951309204,
				-0.1129671260714531
			]
		},
		{
			"mesh":22,
			"name":"Cylinder.047",
			"rotation":[
				0.2792486846446991,
				0,
				0,
				0.9602189064025879
			],
			"scale":[
				1.7675424814224243,
				0.2721593379974365,
				1.590043067932129
			],
			"translation":[
				-0.2183380126953125,
				-1.3951339721679688,
				0.9582752585411072
			]
		},
		{
			"mesh":23,
			"name":"Cylinder.049",
			"rotation":[
				0.4115079641342163,
				0,
				0,
				0.9114062190055847
			],
			"scale":[
				0.5128312706947327,
				1.0086783170700073,
				0.28187695145606995
			],
			"translation":[
				0,
				-0.8477835655212402,
				-1.2129206657409668
			]
		},
		{
			"children":[
				22,
				23
			],
			"mesh":24,
			"name":"Cylinder.048",
			"rotation":[
				-0.5778648257255554,
				0,
				0,
				0.8161325454711914
			],
			"scale":[
				0.4329719543457031,
				1.3965812921524048,
				0.34934520721435547
			],
			"translation":[
				-2.86102294921875e-06,
				-1.132028341293335,
				0.7139762043952942
			]
		},
		{
			"children":[
				24
			],
			"mesh":25,
			"name":"Cylinder.042",
			"rotation":[
				-0.2778513729572296,
				0,
				0,
				0.960624098777771
			],
			"scale":[
				0.52077317237854,
				0.5582190752029419,
				0.46945956349372864
			],
			"translation":[
				0.6061539649963379,
				-0.7682713270187378,
				0.18567898869514465
			]
		},
		{
			"mesh":26,
			"name":"Cylinder.046",
			"scale":[
				2.0054242610931396,
				1,
				2.0054237842559814
			],
			"translation":[
				0.8630105257034302,
				5.256424903869629,
				-1.3491488695144653
			]
		},
		{
			"children":[
				26
			],
			"mesh":27,
			"name":"Cylinder.045",
			"rotation":[
				-0.438591867685318,
				-0.2889496386051178,
				-0.6701788902282715,
				0.5244097113609314
			],
			"scale":[
				0.4951142370700836,
				0.0742921233177185,
				0.45345282554626465
			],
			"translation":[
				0.9374656677246094,
				-0.05814602971076965,
				-0.1129671186208725
			]
		},
		{
			"children":[
				5,
				9,
				20,
				21,
				25,
				27
			],
			"mesh":28,
			"name":"Cylinder",
			"rotation":[
				0.6208628416061401,
				0,
				0,
				0.7839192152023315
			],
			"scale":[
				0.8424680233001709,
				1,
				0.8424680233001709
			],
			"translation":[
				5.160058975219727,
				1.3839061260223389,
				0
			]
		},
		{
			"mesh":29,
			"name":"Cylinder.012",
			"rotation":[
				0.01120189018547535,
				0.17026527225971222,
				-0.7070180177688599,
				0.6863015294075012
			],
			"scale":[
				0.8639677166938782,
				0.06303057074546814,
				0.8639677166938782
			],
			"translation":[
				4.1955790519714355,
				1.2527084350585938,
				-0.7932420969009399
			]
		}
	],
	"materials":[
		{
			"doubleSided":true,
			"name":"Beak/Feet",
			"pbrMetallicRoughness":{
				"baseColorFactor":[
					0.7601395845413208,
					0.5840764045715332,
					0.07987210154533386,
					1
				],
				"metallicFactor":0,
				"roughnessFactor":0.5
			}
		},
		{
			"doubleSided":true,
			"name":"Eyes",
			"pbrMetallicRoughness":{
				"baseColorFactor":[
					0,
					0,
					0,
					1
				],
				"metallicFactor":0,
				"roughnessFactor":0.5
			}
		},
		{
			"doubleSided":true,
			"name":"Body",
			"pbrMetallicRoughness":{
				"baseColorFactor":[
					0.0003831642970908433,
					0.03053969517350197,
					0.8002356290817261,
					1
				],
				"metallicFactor":0.8333333134651184,
				"roughnessFactor":0.658730149269104
			}
		},
		{
			"doubleSided":true,
			"name":"Tail.002",
			"pbrMetallicRoughness":{
				"baseColorFactor":[
					0,
					0.09379159659147263,
					0.451330304145813,
					1
				],
				"metallicFactor":0.7222222089767456,
				"roughnessFactor":0.238095223903656
			}
		},
		{
			"doubleSided":true,
			"name":"Tail",
			"pbrMetallicRoughness":{
				"baseColorFactor":[
					0,
					0.23290780186653137,
					0.4515865445137024,
					1
				],
				"metallicFactor":0.7222222089767456,
				"roughnessFactor":0.238095223903656
			}
		},
		{
			"doubleSided":true,
			"name":"Tail.001",
			"pbrMetallicRoughness":{
				"baseColorFactor":[
					0,
					0.45136865973472595,
					0.3773461580276489,
					1
				],
				"metallicFactor":0.7222222089767456,
				"roughnessFactor":0.238095223903656
			}
		},
		{
			"doubleSided":true,
			"name":"Tail.003",
			"pbrMetallicRoughness":{
				"baseColorFactor":[
					0.24440759420394897,
					0,
					0.4514492154121399,
					1
				],
				"metallicFactor":0.7222222089767456,
				"roughnessFactor":0.238095223903656
			}
		},
		{
			"doubleSided":true,
			"name":"Body.001",
			"pbrMetallicRoughness":{
				"baseColorFactor":[
					0.26383253931999207,
					0.2606624364852905,
					0.5078356862068176,
					1
				],
				"metallicFactor":0.8333333134651184,
				"roughnessFactor":0.658730149269104
			}
		}
	],
	"meshes":[
		{
			"name":"Cylinder.004",
			"primitives":[
				{
					"attributes":{
						"POSITION":0,
						"NORMAL":1,
						"TEXCOORD_0":2
					},
					"indices":3,
					"material":0
				}
			]
		},
		{
			"name":"Cylinder.005",
			"primitives":[
				{
					"attributes":{
						"POSITION":4,
						"NORMAL":5,
						"TEXCOORD_0":6
					},
					"indices":3,
					"material":1
				}
			]
		},
		{
			"name":"Cylinder.043",
			"primitives":[
				{
					"attributes":{
						"POSITION":7,
						"NORMAL":8,
						"TEXCOORD_0":9
					},
					"indices":10,
					"material":1
				}
			]
		},
		{
			"name":"Cylinder.003",
			"primitives":[
				{
					"attributes":{
						"POSITION":11,
						"NORMAL":12,
						"TEXCOORD_0":13
					},
					"indices":3,
					"material":2
				}
			]
		},
		{
			"name":"Cylinder.002",
			"primitives":[
				{
					"attributes":{
						"POSITION":14,
						"NORMAL":15,
						"TEXCOORD_0":16
					},
					"indices":3,
					"material":2
				}
			]
		},
		{
			"name":"Cylinder.001",
			"primitives":[
				{
					"attributes":{
						"POSITION":17,
						"NORMAL":18,
						"TEXCOORD_0":19
					},
					"indices":3,
					"material":2
				}
			]
		},
		{
			"name":"Cylinder.008",
			"primitives":[
				{
					"attributes":{
						"POSITION":20,
						"NORMAL":21,
						"TEXCOORD_0":22
					},
					"indices":3,
					"material":0
				}
			]
		},
		{
			"name":"Cylinder.009",
			"primitives":[
				{
					"attributes":{
						"POSITION":23,
						"NORMAL":24,
						"TEXCOORD_0":25
					},
					"indices":3,
					"material":0
				}
			]
		},
		{
			"name":"Cylinder.007",
			"primitives":[
				{
					"attributes":{
						"POSITION":26,
						"NORMAL":27,
						"TEXCOORD_0":28
					},
					"indices":3,
					"material":0
				}
			]
		},
		{
			"name":"Cylinder.006",
			"primitives":[
				{
					"attributes":{
						"POSITION":29,
						"NORMAL":30,
						"TEXCOORD_0":31
					},
					"indices":3
				}
			]
		},
		{
			"name":"Cylinder.021",
			"primitives":[
				{
					"attributes":{
						"POSITION":32,
						"NORMAL":33,
						"TEXCOORD_0":34
					},
					"indices":3,
					"material":3
				}
			]
		},
		{
			"name":"Cylinder.018",
			"primitives":[
				{
					"attributes":{
						"POSITION":35,
						"NORMAL":36,
						"TEXCOORD_0":37
					},
					"indices":3,
					"material":4
				}
			]
		},
		{
			"name":"Cylinder.015",
			"primitives":[
				{
					"attributes":{
						"POSITION":38,
						"NORMAL":39,
						"TEXCOORD_0":40
					},
					"indices":3,
					"material":4
				}
			]
		},
		{
			"name":"Cylinder.013",
			"primitives":[
				{
					"attributes":{
						"POSITION":41,
						"NORMAL":42,
						"TEXCOORD_0":43
					},
					"indices":3,
					"material":4
				}
			]
		},
		{
			"name":"Cylinder.020",
			"primitives":[
				{
					"attributes":{
						"POSITION":44,
						"NORMAL":45,
						"TEXCOORD_0":46
					},
					"indices":3,
					"material":5
				}
			]
		},
		{
			"name":"Cylinder.017",
			"primitives":[
				{
					"attributes":{
						"POSITION":47,
						"NORMAL":48,
						"TEXCOORD_0":49
					},
					"indices":3,
					"material":4
				}
			]
		},
		{
			"name":"Cylinder.014",
			"primitives":[
				{
					"attributes":{
						"POSITION":50,
						"NORMAL":51,
						"TEXCOORD_0":52
					},
					"indices":3,
					"material":4
				}
			]
		},
		{
			"name":"Cylinder.022",
			"primitives":[
				{
					"attributes":{
						"POSITION":53,
						"NORMAL":54,
						"TEXCOORD_0":55
					},
					"indices":3,
					"material":6
				}
			]
		},
		{
			"name":"Cylinder.019",
			"primitives":[
				{
					"attributes":{
						"POSITION":56,
						"NORMAL":57,
						"TEXCOORD_0":58
					},
					"indices":3,
					"material":4
				}
			]
		},
		{
			"name":"Cylinder.016",
			"primitives":[
				{
					"attributes":{
						"POSITION":59,
						"NORMAL":60,
						"TEXCOORD_0":61
					},
					"indices":3,
					"material":4
				}
			]
		},
		{
			"name":"Cylinder.010",
			"primitives":[
				{
					"attributes":{
						"POSITION":62,
						"NORMAL":63,
						"TEXCOORD_0":64
					},
					"indices":65,
					"material":2
				}
			]
		},
		{
			"name":"Cylinder.011",
			"primitives":[
				{
					"attributes":{
						"POSITION":66,
						"NORMAL":67,
						"TEXCOORD_0":68
					},
					"indices":3,
					"material":2
				}
			]
		},
		{
			"name":"Cylinder.047",
			"primitives":[
				{
					"attributes":{
						"POSITION":69,
						"NORMAL":70,
						"TEXCOORD_0":71
					},
					"indices":72,
					"material":0
				}
			]
		},
		{
			"name":"Cylinder.049",
			"primitives":[
				{
					"attributes":{
						"POSITION":73,
						"NORMAL":74,
						"TEXCOORD_0":75
					},
					"indices":72,
					"material":0
				}
			]
		},
		{
			"name":"Cylinder.048",
			"primitives":[
				{
					"attributes":{
						"POSITION":76,
						"NORMAL":77,
						"TEXCOORD_0":78
					},
					"indices":72,
					"material":0
				}
			]
		},
		{
			"name":"Cylinder.042",
			"primitives":[
				{
					"attributes":{
						"POSITION":79,
						"NORMAL":80,
						"TEXCOORD_0":81
					},
					"indices":72
				}
			]
		},
		{
			"name":"Cylinder.046",
			"primitives":[
				{
					"attributes":{
						"POSITION":82,
						"NORMAL":83,
						"TEXCOORD_0":84
					},
					"indices":85,
					"material":7
				}
			]
		},
		{
			"name":"Cylinder.045",
			"primitives":[
				{
					"attributes":{
						"POSITION":86,
						"NORMAL":87,
						"TEXCOORD_0":88
					},
					"indices":85,
					"material":2
				}
			]
		},
		{
			"name":"Cylinder",
			"primitives":[
				{
					"attributes":{
						"POSITION":89,
						"NORMAL":90,
						"TEXCOORD_0":91
					},
					"indices":65,
					"material":2
				}
			]
		},
		{
			"name":"Cylinder.012",
			"primitives":[
				{
					"attributes":{
						"POSITION":92,
						"NORMAL":93,
						"TEXCOORD_0":94
					},
					"indices":3,
					"material":7
				}
			]
		}
	],
	"accessors":[
		{
			"bufferView":0,
			"componentType":5126,
			"count":36,
			"max":[
				0.8660253882408142,
				2.000000476837158,
				0.9999990463256836
			],
			"min":[
				-0.8660253882408142,
				0,
				-1.0000009536743164
			],
			"type":"VEC3"
		},
		{
			"bufferView":1,
			"componentType":5126,
			"count":36,
			"type":"VEC3"
		},
		{
			"bufferView":2,
			"componentType":5126,
			"count":36,
			"type":"VEC2"
		},
		{
			"bufferView":3,
			"componentType":5123,
			"count":60,
			"type":"SCALAR"
		},
		{
			"bufferView":4,
			"componentType":5126,
			"count":36,
			"max":[
				0.8660253882408142,
				1,
				1
			],
			"min":[
				-0.8660253882408142,
				-1,
				-1
			],
			"type":"VEC3"
		},
		{
			"bufferView":5,
			"componentType":5126,
			"count":36,
			"type":"VEC3"
		},
		{
			"bufferView":6,
			"componentType":5126,
			"count":36,
			"type":"VEC2"
		},
		{
			"bufferView":7,
			"componentType":5126,
			"count":36,
			"max":[
				0.8660253882408142,
				1,
				0.9999999403953552
			],
			"min":[
				-0.8660253882408142,
				-1,
				-1
			],
			"type":"VEC3"
		},
		{
			"bufferView":8,
			"componentType":5126,
			"count":36,
			"type":"VEC3"
		},
		{
			"bufferView":9,
			"componentType":5126,
			"count":36,
			"type":"VEC2"
		},
		{
			"bufferView":10,
			"componentType":5123,
			"count":60,
			"type":"SCALAR"
		},
		{
			"bufferView":11,
			"componentType":5126,
			"count":36,
			"max":[
				0.8660253882408142,
				1,
				1
			],
			"min":[
				-0.8660253882408142,
				-1,
				-1
			],
			"type":"VEC3"
		},
		{
			"bufferView":12,
			"componentType":5126,
			"count":36,
			"type":"VEC3"
		},
		{
			"bufferView":13,
			"componentType":5126,
			"count":36,
			"type":"VEC2"
		},
		{
			"bufferView":14,
			"componentType":5126,
			"count":36,
			"max":[
				0.8660253882408142,
				1.9999998807907104,
				1
			],
			"min":[
				-0.8660253882408142,
				-1.1920928955078125e-07,
				-1
			],
			"type":"VEC3"
		},
		{
			"bufferView":15,
			"componentType":5126,
			"count":36,
			"type":"VEC3"
		},
		{
			"bufferView":16,
			"componentType":5126,
			"count":36,
			"type":"VEC2"
		},
		{
			"bufferView":17,
			"componentType":5126,
			"count":36,
			"max":[
				0.8660253882408142,
				1.9999998807907104,
				1
			],
			"min":[
				-0.8660253882408142,
				-1.1920928955078125e-07,
				-1
			],
			"type":"VEC3"
		},
		{
			"bufferView":18,
			"componentType":5126,
			"count":36,
			"type":"VEC3"
		},
		{
			"bufferView":19,
			"componentType":5126,
			"count":36,
			"type":"VEC2"
		},
		{
			"bufferView":20,
			"componentType":5126,
			"count":36,
			"max":[
				0.8660253882408142,
				1,
				1
			],
			"min":[
				-0.8660253882408142,
				-1,
				-1
			],
			"type":"VEC3"
		},
		{
			"bufferView":21,
			"componentType":5126,
			"count":36,
			"type":"VEC3"
		},
		{
			"bufferView":22,
			"componentType":5126,
			"count":36,
			"type":"VEC2"
		},
		{
			"bufferView":23,
			"componentType":5126,
			"count":36,
			"max":[
				0.8660253882408142,
				1,
				1
			],
			"min":[
				-0.8660253882408142,
				-1,
				-1
			],
			"type":"VEC3"
		},
		{
			"bufferView":24,
			"componentType":5126,
			"count":36,
			"type":"VEC3"
		},
		{
			"bufferView":25,
			"componentType":5126,
			"count":36,
			"type":"VEC2"
		},
		{
			"bufferView":26,
			"componentType":5126,
			"count":36,
			"max":[
				0.8660253882408142,
				1,
				1
			],
			"min":[
				-0.8660253882408142,
				-1,
				-1
			],
			"type":"VEC3"
		},
		{
			"bufferView":27,
			"componentType":5126,
			"count":36,
			"type":"VEC3"
		},
		{
			"bufferView":28,
			"componentType":5126,
			"count":36,
			"type":"VEC2"
		},
		{
			"bufferView":29,
			"componentType":5126,
			"count":36,
			"max":[
				0.8660253882408142,
				1,
				1
			],
			"min":[
				-0.8660253882408142,
				-1,
				-1
			],
			"type":"VEC3"
		},
		{
			"bufferView":30,
			"componentType":5126,
			"count":36,
			"type":"VEC3"
		},
		{
			"bufferView":31,
			"componentType":5126,
			"count":36,
			"type":"VEC2"
		},
		{
			"bufferView":32,
			"componentType":5126,
			"count":36,
			"max":[
				0.8660253882408142,
				1,
				1
			],
			"min":[
				-0.8660253882408142,
				-1,
				-1
			],
			"type":"VEC3"
		},
		{
			"bufferView":33,
			"componentType":5126,
			"count":36,
			"type":"VEC3"
		},
		{
			"bufferView":34,
			"componentType":5126,
			"count":36,
			"type":"VEC2"
		},
		{
			"bufferView":35,
			"componentType":5126,
			"count":36,
			"max":[
				0.8660253882408142,
				1,
				1
			],
			"min":[
				-0.8660253882408142,
				-1,
				-1
			],
			"type":"VEC3"
		},
		{
			"bufferView":36,
			"componentType":5126,
			"count":36,
			"type":"VEC3"
		},
		{
			"bufferView":37,
			"componentType":5126,
			"count":36,
			"type":"VEC2"
		},
		{
			"bufferView":38,
			"componentType":5126,
			"count":36,
			"max":[
				0.8660253882408142,
				1,
				1
			],
			"min":[
				-0.8660253882408142,
				-1,
				-1
			],
			"type":"VEC3"
		},
		{
			"bufferView":39,
			"componentType":5126,
			"count":36,
			"type":"VEC3"
		},
		{
			"bufferView":40,
			"componentType":5126,
			"count":36,
			"type":"VEC2"
		},
		{
			"bufferView":41,
			"componentType":5126,
			"count":36,
			"max":[
				0.8660253882408142,
				1,
				1
			],
			"min":[
				-0.8660253882408142,
				-1,
				-1
			],
			"type":"VEC3"
		},
		{
			"bufferView":42,
			"componentType":5126,
			"count":36,
			"type":"VEC3"
		},
		{
			"bufferView":43,
			"componentType":5126,
			"count":36,
			"type":"VEC2"
		},
		{
			"bufferView":44,
			"componentType":5126,
			"count":36,
			"max":[
				0.8660253882408142,
				1,
				1
			],
			"min":[
				-0.8660253882408142,
				-1,
				-1
			],
			"type":"VEC3"
		},
		{
			"bufferView":45,
			"componentType":5126,
			"count":36,
			"type":"VEC3"
		},
		{
			"bufferView":46,
			"componentType":5126,
			"count":36,
			"type":"VEC2"
		},
		{
			"bufferView":47,
			"componentType":5126,
			"count":36,
			"max":[
				0.8660253882408142,
				1,
				1
			],
			"min":[
				-0.8660253882408142,
				-1,
				-1
			],
			"type":"VEC3"
		},
		{
			"bufferView":48,
			"componentType":5126,
			"count":36,
			"type":"VEC3"
		},
		{
			"bufferView":49,
			"componentType":5126,
			"count":36,
			"type":"VEC2"
		},
		{
			"bufferView":50,
			"componentType":5126,
			"count":36,
			"max":[
				0.8660253882408142,
				1,
				1
			],
			"min":[
				-0.8660253882408142,
				-1,
				-1
			],
			"type":"VEC3"
		},
		{
			"bufferView":51,
			"componentType":5126,
			"count":36,
			"type":"VEC3"
		},
		{
			"bufferView":52,
			"componentType":5126,
			"count":36,
			"type":"VEC2"
		},
		{
			"bufferView":53,
			"componentType":5126,
			"count":36,
			"max":[
				0.8660253882408142,
				1,
				1
			],
			"min":[
				-0.8660253882408142,
				-1,
				-1
			],
			"type":"VEC3"
		},
		{
			"bufferView":54,
			"componentType":5126,
			"count":36,
			"type":"VEC3"
		},
		{
			"bufferView":55,
			"componentType":5126,
			"count":36,
			"type":"VEC2"
		},
		{
			"bufferView":56,
			"componentType":5126,
			"count":36,
			"max":[
				0.8660253882408142,
				1,
				1
			],
			"min":[
				-0.8660253882408142,
				-1,
				-1
			],
			"type":"VEC3"
		},
		{
			"bufferView":57,
			"componentType":5126,
			"count":36,
			"type":"VEC3"
		},
		{
			"bufferView":58,
			"componentType":5126,
			"count":36,
			"type":"VEC2"
		},
		{
			"bufferView":59,
			"componentType":5126,
			"count":36,
			"max":[
				0.8660253882408142,
				1,
				1
			],
			"min":[
				-0.8660253882408142,
				-1,
				-1
			],
			"type":"VEC3"
		},
		{
			"bufferView":60,
			"componentType":5126,
			"count":36,
			"type":"VEC3"
		},
		{
			"bufferView":61,
			"componentType":5126,
			"count":36,
			"type":"VEC2"
		},
		{
			"bufferView":62,
			"componentType":5126,
			"count":60,
			"max":[
				0.8660253882408142,
				1,
				1
			],
			"min":[
				-0.8660253882408142,
				-1,
				-1
			],
			"type":"VEC3"
		},
		{
			"bufferView":63,
			"componentType":5126,
			"count":60,
			"type":"VEC3"
		},
		{
			"bufferView":64,
			"componentType":5126,
			"count":60,
			"type":"VEC2"
		},
		{
			"bufferView":65,
			"componentType":5123,
			"count":96,
			"type":"SCALAR"
		},
		{
			"bufferView":66,
			"componentType":5126,
			"count":36,
			"max":[
				0.8660253882408142,
				1,
				1
			],
			"min":[
				-0.8660253882408142,
				-1,
				-1
			],
			"type":"VEC3"
		},
		{
			"bufferView":67,
			"componentType":5126,
			"count":36,
			"type":"VEC3"
		},
		{
			"bufferView":68,
			"componentType":5126,
			"count":36,
			"type":"VEC2"
		},
		{
			"bufferView":69,
			"componentType":5126,
			"count":36,
			"max":[
				0.866025447845459,
				1,
				1
			],
			"min":[
				-0.8660253286361694,
				-1,
				-1
			],
			"type":"VEC3"
		},
		{
			"bufferView":70,
			"componentType":5126,
			"count":36,
			"type":"VEC3"
		},
		{
			"bufferView":71,
			"componentType":5126,
			"count":36,
			"type":"VEC2"
		},
		{
			"bufferView":72,
			"componentType":5123,
			"count":60,
			"type":"SCALAR"
		},
		{
			"bufferView":73,
			"componentType":5126,
			"count":36,
			"max":[
				0.8660249710083008,
				1,
				1.0000001192092896
			],
			"min":[
				-0.8660249710083008,
				-1,
				-1.0000001192092896
			],
			"type":"VEC3"
		},
		{
			"bufferView":74,
			"componentType":5126,
			"count":36,
			"type":"VEC3"
		},
		{
			"bufferView":75,
			"componentType":5126,
			"count":36,
			"type":"VEC2"
		},
		{
			"bufferView":76,
			"componentType":5126,
			"count":36,
			"max":[
				0.866025447845459,
				0.8376957178115845,
				1
			],
			"min":[
				-0.866025447845459,
				-1.1623042821884155,
				-1
			],
			"type":"VEC3"
		},
		{
			"bufferView":77,
			"componentType":5126,
			"count":36,
			"type":"VEC3"
		},
		{
			"bufferView":78,
			"componentType":5126,
			"count":36,
			"type":"VEC2"
		},
		{
			"bufferView":79,
			"componentType":5126,
			"count":36,
			"max":[
				0.866025447845459,
				0.9999999403953552,
				1
			],
			"min":[
				-0.866025447845459,
				-0.9999999403953552,
				-1
			],
			"type":"VEC3"
		},
		{
			"bufferView":80,
			"componentType":5126,
			"count":36,
			"type":"VEC3"
		},
		{
			"bufferView":81,
			"componentType":5126,
			"count":36,
			"type":"VEC2"
		},
		{
			"bufferView":82,
			"componentType":5126,
			"count":36,
			"max":[
				0.8810367584228516,
				6.717376708984375,
				0.9360389709472656
			],
			"min":[
				-0.8810368776321411,
				-6.717376708984375,
				-0.9360388517379761
			],
			"type":"VEC3"
		},
		{
			"bufferView":83,
			"componentType":5126,
			"count":36,
			"type":"VEC3"
		},
		{
			"bufferView":84,
			"componentType":5126,
			"count":36,
			"type":"VEC2"
		},
		{
			"bufferView":85,
			"componentType":5123,
			"count":60,
			"type":"SCALAR"
		},
		{
			"bufferView":86,
			"componentType":5126,
			"count":36,
			"max":[
				0.8892880082130432,
				3.800020217895508,
				0.9671779274940491
			],
			"min":[
				-0.889288067817688,
				-3.800020217895508,
				-0.9671780467033386
			],
			"type":"VEC3"
		},
		{
			"bufferView":87,
			"componentType":5126,
			"count":36,
			"type":"VEC3"
		},
		{
			"bufferView":88,
			"componentType":5126,
			"count":36,
			"type":"VEC2"
		},
		{
			"bufferView":89,
			"componentType":5126,
			"count":60,
			"max":[
				0.8660253882408142,
				0.8206347227096558,
				1
			],
			"min":[
				-0.8660253882408142,
				-1,
				-1
			],
			"type":"VEC3"
		},
		{
			"bufferView":90,
			"componentType":5126,
			"count":60,
			"type":"VEC3"
		},
		{
			"bufferView":91,
			"componentType":5126,
			"count":60,
			"type":"VEC2"
		},
		{
			"bufferView":92,
			"componentType":5126,
			"count":36,
			"max":[
				0.8660253882408142,
				1,
				1
			],
			"min":[
				-0.8660253882408142,
				-1,
				-1
			],
			"type":"VEC3"
		},
		{
			"bufferView":93,
			"componentType":5126,
			"count":36,
			"type":"VEC3"
		},
		{
			"bufferView":94,
			"componentType":5126,
			"count":36,
			"type":"VEC2"
		}
	],
	"bufferViews":[
		{
			"buffer":0,
			"byteLength":432,
			"byteOffset":0,
			"target":34962
		},
		{
			"buffer":0,
			"byteLength":432,
			"byteOffset":432,
			"target":34962
		},
		{
			"buffer":0,
			"byteLength":288,
			"byteOffset":864,
			"target":34962
		},
		{
			"buffer":0,
			"byteLength":120,
			"byteOffset":1152,
			"target":34963
		},
		{
			"buffer":0,
			"byteLength":432,
			"byteOffset":1272,
			"target":34962
		},
		{
			"buffer":0,
			"byteLength":432,
			"byteOffset":1704,
			"target":34962
		},
		{
			"buffer":0,
			"byteLength":288,
			"byteOffset":2136,
			"target":34962
		},
		{
			"buffer":0,
			"byteLength":432,
			"byteOffset":2424,
			"target":34962
		},
		{
			"buffer":0,
			"byteLength":432,
			"byteOffset":2856,
			"target":34962
		},
		{
			"buffer":0,
			"byteLength":288,
			"byteOffset":3288,
			"target":34962
		},
		{
			"buffer":0,
			"byteLength":120,
			"byteOffset":3576,
			"target":34963
		},
		{
			"buffer":0,
			"byteLength":432,
			"byteOffset":3696,
			"target":34962
		},
		{
			"buffer":0,
			"byteLength":432,
			"byteOffset":4128,
			"target":34962
		},
		{
			"buffer":0,
			"byteLength":288,
			"byteOffset":4560,
			"target":34962
		},
		{
			"buffer":0,
			"byteLength":432,
			"byteOffset":4848,
			"target":34962
		},
		{
			"buffer":0,
			"byteLength":432,
			"byteOffset":5280,
			"target":34962
		},
		{
			"buffer":0,
			"byteLength":288,
			"byteOffset":5712,
			"target":34962
		},
		{
			"buffer":0,
			"byteLength":432,
			"byteOffset":6000,
			"target":34962
		},
		{
			"buffer":0,
			"byteLength":432,
			"byteOffset":6432,
			"target":34962
		},
		{
			"buffer":0,
			"byteLength":288,
			"byteOffset":6864,
			"target":34962
		},
		{
			"buffer":0,
			"byteLength":432,
			"byteOffset":7152,
			"target":34962
		},
		{
			"buffer":0,
			"byteLength":432,
			"byteOffset":7584,
			"target":34962
		},
		{
			"buffer":0,
			"byteLength":288,
			"byteOffset":8016,
			"target":34962
		},
		{
			"buffer":0,
			"byteLength":432,
			"byteOffset":8304,
			"target":34962
		},
		{
			"buffer":0,
			"byteLength":432,
			"byteOffset":8736,
			"target":34962
		},
		{
			"buffer":0,
			"byteLength":288,
			"byteOffset":9168,
			"target":34962
		},
		{
			"buffer":0,
			"byteLength":432,
			"byteOffset":9456,
			"target":34962
		},
		{
			"buffer":0,
			"byteLength":432,
			"byteOffset":9888,
			"target":34962
		},
		{
			"buffer":0,
			"byteLength":288,
			"byteOffset":10320,
			"target":34962
		},
		{
			"buffer":0,
			"byteLength":432,
			"byteOffset":10608,
			"target":34962
		},
		{
			"buffer":0,
			"byteLength":432,
			"byteOffset":11040,
			"target":34962
		},
		{
			"buffer":0,
			"byteLength":288,
			"byteOffset":11472,
			"target":34962
		},
		{
			"buffer":0,
			"byteLength":432,
			"byteOffset":11760,
			"target":34962
		},
		{
			"buffer":0,
			"byteLength":432,
			"byteOffset":12192,
			"target":34962
		},
		{
			"buffer":0,
			"byteLength":288,
			"byteOffset":12624,
			"target":34962
		},
		{
			"buffer":0,
			"byteLength":432,
			"byteOffset":12912,
			"target":34962
		},
		{
			"buffer":0,
			"byteLength":432,
			"byteOffset":13344,
			"target":34962
		},
		{
			"buffer":0,
			"byteLength":288,
			"byteOffset":13776,
			"target":34962
		},
		{
			"buffer":0,
			"byteLength":432,
			"byteOffset":14064,
			"target":34962
		},
		{
			"buffer":0,
			"byteLength":432,
			"byteOffset":14496,
			"target":34962
		},
		{
			"buffer":0,
			"byteLength":288,
			"byteOffset":14928,
			"target":34962
		},
		{
			"buffer":0,
			"byteLength":432,
			"byteOffset":15216,
			"target":34962
		},
		{
			"buffer":0,
			"byteLength":432,
			"byteOffset":15648,
			"target":34962
		},
		{
			"buffer":0,
			"byteLength":288,
			"byteOffset":16080,
			"target":34962
		},
		{
			"buffer":0,
			"byteLength":432,
			"byteOffset":16368,
			"target":34962
		},
		{
			"buffer":0,
			"byteLength":432,
			"byteOffset":16800,
			"target":34962
		},
		{
			"buffer":0,
			"byteLength":288,
			"byteOffset":17232,
			"target":34962
		},
		{
			"buffer":0,
			"byteLength":432,
			"byteOffset":17520,
			"target":34962
		},
		{
			"buffer":0,
			"byteLength":432,
			"byteOffset":17952,
			"target":34962
		},
		{
			"buffer":0,
			"byteLength":288,
			"byteOffset":18384,
			"target":34962
		},
		{
			"buffer":0,
			"byteLength":432,
			"byteOffset":18672,
			"target":34962
		},
		{
			"buffer":0,
			"byteLength":432,
			"byteOffset":19104,
			"target":34962
		},
		{
			"buffer":0,
			"byteLength":288,
			"byteOffset":19536,
			"target":34962
		},
		{
			"buffer":0,
			"byteLength":432,
			"byteOffset":19824,
			"target":34962
		},
		{
			"buffer":0,
			"byteLength":432,
			"byteOffset":20256,
			"target":34962
		},
		{
			"buffer":0,
			"byteLength":288,
			"byteOffset":20688,
			"target":34962
		},
		{
			"buffer":0,
			"byteLength":432,
			"byteOffset":20976,
			"target":34962
		},
		{
			"buffer":0,
			"byteLength":432,
			"byteOffset":21408,
			"target":34962
		},
		{
			"buffer":0,
			"byteLength":288,
			"byteOffset":21840,
			"target":34962
		},
		{
			"buffer":0,
			"byteLength":432,
			"byteOffset":22128,
			"target":34962
		},
		{
			"buffer":0,
			"byteLength":432,
			"byteOffset":22560,
			"target":34962
		},
		{
			"buffer":0,
			"byteLength":288,
			"byteOffset":22992,
			"target":34962
		},
		{
			"buffer":0,
			"byteLength":720,
			"byteOffset":23280,
			"target":34962
		},
		{
			"buffer":0,
			"byteLength":720,
			"byteOffset":24000,
			"target":34962
		},
		{
			"buffer":0,
			"byteLength":480,
			"byteOffset":24720,
			"target":34962
		},
		{
			"buffer":0,
			"byteLength":192,
			"byteOffset":25200,
			"target":34963
		},
		{
			"buffer":0,
			"byteLength":432,
			"byteOffset":25392,
			"target":34962
		},
		{
			"buffer":0,
			"byteLength":432,
			"byteOffset":25824,
			"target":34962
		},
		{
			"buffer":0,
			"byteLength":288,
			"byteOffset":26256,
			"target":34962
		},
		{
			"buffer":0,
			"byteLength":432,
			"byteOffset":26544,
			"target":34962
		},
		{
			"buffer":0,
			"byteLength":432,
			"byteOffset":26976,
			"target":34962
		},
		{
			"buffer":0,
			"byteLength":288,
			"byteOffset":27408,
			"target":34962
		},
		{
			"buffer":0,
			"byteLength":120,
			"byteOffset":27696,
			"target":34963
		},
		{
			"buffer":0,
			"byteLength":432,
			"byteOffset":27816,
			"target":34962
		},
		{
			"buffer":0,
			"byteLength":432,
			"byteOffset":28248,
			"target":34962
		},
		{
			"buffer":0,
			"byteLength":288,
			"byteOffset":28680,
			"target":34962
		},
		{
			"buffer":0,
			"byteLength":432,
			"byteOffset":28968,
			"target":34962
		},
		{
			"buffer":0,
			"byteLength":432,
			"byteOffset":29400,
			"target":34962
		},
		{
			"buffer":0,
			"byteLength":288,
			"byteOffset":29832,
			"target":34962
		},
		{
			"buffer":0,
			"byteLength":432,
			"byteOffset":30120,
			"target":34962
		},
		{
			"buffer":0,
			"byteLength":432,
			"byteOffset":30552,
			"target":34962
		},
		{
			"buffer":0,
			"byteLength":288,
			"byteOffset":30984,
			"target":34962
		},
		{
			"buffer":0,
			"byteLength":432,
			"byteOffset":31272,
			"target":34962
		},
		{
			"buffer":0,
			"byteLength":432,
			"byteOffset":31704,
			"target":34962
		},
		{
			"buffer":0,
			"byteLength":288,
			"byteOffset":32136,
			"target":34962
		},
		{
			"buffer":0,
			"byteLength":120,
			"byteOffset":32424,
			"target":34963
		},
		{
			"buffer":0,
			"byteLength":432,
			"byteOffset":32544,
			"target":34962
		},
		{
			"buffer":0,
			"byteLength":432,
			"byteOffset":32976,
			"target":34962
		},
		{
			"buffer":0,
			"byteLength":288,
			"byteOffset":33408,
			"target":34962
		},
		{
			"buffer":0,
			"byteLength":720,
			"byteOffset":33696,
			"target":34962
		},
		{
			"buffer":0,
			"byteLength":720,
			"byteOffset":34416,
			"target":34962
		},
		{
			"buffer":0,
			"byteLength":480,
			"byteOffset":35136,
			"target":34962
		},
		{
			"buffer":0,
			"byteLength":432,
			"byteOffset":35616,
			"target":34962
		},
		{
			"buffer":0,
			"byteLength":432,
			"byteOffset":36048,
			"target":34962
		},
		{
			"buffer":0,
			"byteLength":288,
			"byteOffset":36480,
			"target":34962
		}
	],
	"buffers":[
		{
			"byteLength":36768,
			"uri":"Percival1.bin"
		}
	]
}
